<?xml version="1.0" encoding="UTF-8"?>
<svg id="Layer_2" data-name="Layer 2" xmlns="http://www.w3.org/2000/svg" xmlns:xlink="http://www.w3.org/1999/xlink" viewBox="0 0 798.76 443.87">
  <defs>
    <style>
      .cls-1 {
        stroke: #0078d4;
        stroke-width: .5px;
      }

      .cls-1, .cls-2, .cls-3, .cls-4 {
        fill: none;
      }

      .cls-1, .cls-3 {
        stroke-miterlimit: 8;
      }

      .cls-2, .cls-5 {
        stroke: #145884;
        stroke-miterlimit: 10;
      }

      .cls-6, .cls-7, .cls-8, .cls-9 {
        font-family: Montserrat-Regular, Montserrat;
      }

      .cls-6, .cls-10, .cls-11 {
        letter-spacing: 0em;
      }

      .cls-12 {
        letter-spacing: 0em;
      }

      .cls-13, .cls-14, .cls-15 {
        fill: #1985ce;
      }

      .cls-16, .cls-5 {
        fill: #fff;
      }

      .cls-17, .cls-18, .cls-19, .cls-20, .cls-10, .cls-21, .cls-22, .cls-15 {
        font-family: Montserrat-Medium, Montserrat;
        font-weight: 500;
      }

      .cls-17, .cls-23 {
        letter-spacing: .01em;
      }

      .cls-24 {
        letter-spacing: .01em;
      }

      .cls-25, .cls-21 {
        letter-spacing: 0em;
      }

      .cls-26, .cls-19, .cls-27, .cls-28 {
        fill: #145884;
      }

      .cls-29 {
        letter-spacing: -.02em;
      }

      .cls-3 {
        stroke: #f2f2f2;
        stroke-width: 3px;
      }

      .cls-30 {
        letter-spacing: -.08em;
      }

      .cls-31 {
        letter-spacing: 0em;
      }

      .cls-32 {
        letter-spacing: 0em;
      }

      .cls-19, .cls-27, .cls-14, .cls-15 {
        font-size: 12px;
      }

      .cls-33 {
        letter-spacing: -.01em;
      }

      .cls-34 {
        letter-spacing: 0em;
      }

      .cls-35 {
        letter-spacing: 0em;
      }

      .cls-36 {
        letter-spacing: .02em;
      }

      .cls-37 {
        letter-spacing: -.01em;
      }

      .cls-38 {
        letter-spacing: 0em;
      }

      .cls-20, .cls-39 {
        letter-spacing: 0em;
      }

      .cls-40 {
        letter-spacing: 0em;
      }

      .cls-41, .cls-22 {
        letter-spacing: 0em;
      }

      .cls-42 {
        fill: #49ba89;
      }

      .cls-43 {
        letter-spacing: 0em;
      }

      .cls-8 {
        letter-spacing: -.02em;
      }

      .cls-14 {
        font-family: Montserrat-Light, Montserrat;
        font-weight: 300;
      }

      .cls-44 {
        letter-spacing: -.01em;
      }

      .cls-45 {
        clip-path: url(#clippath);
      }

      .cls-46 {
        letter-spacing: 0em;
      }

      .cls-47 {
        letter-spacing: -.01em;
      }

      .cls-48 {
        letter-spacing: 0em;
      }

      .cls-28 {
        font-family: CooperBlack, 'Cooper Black';
        font-size: 36px;
      }

      .cls-49 {
        fill: #0078d4;
        fill-rule: evenodd;
      }

      .cls-50 {
        letter-spacing: 0em;
      }

      .cls-51 {
        letter-spacing: -.07em;
      }

      .cls-9 {
        letter-spacing: -.02em;
      }

      .cls-52 {
        letter-spacing: -.02em;
      }

      .cls-53 {
        letter-spacing: -.01em;
      }

      .cls-54 {
        letter-spacing: -.02em;
      }
    </style>
    <clipPath id="clippath">
      <polygon class="cls-4" points="355.46 87.12 438.14 87.12 438.14 0 355.46 0 355.46 87.12 355.46 87.12"/>
    </clipPath>
  </defs>
  <g id="AI-in-a-box_Grid" data-name="AI-in-a-box Grid">
    <g id="aoai-in-a-box">
      <g id="text">
        <text class="cls-27" transform="translate(667.07 243.47)"><tspan class="cls-21" x="0" y="0">AO</tspan><tspan class="cls-10" x="18.62" y="0">AI</tspan><tspan class="cls-7" x="31.13" y="0">-in-a-B</tspan><tspan class="cls-8" x="72.36" y="0">o</tspan><tspan class="cls-7" x="79.66" y="0">x</tspan></text>
        <text class="cls-19" transform="translate(623.57 276.9)"><tspan x="0" y="0">T</tspan><tspan class="cls-50" x="7.04" y="0">h</tspan><tspan class="cls-11" x="15.25" y="0">ese </tspan><tspan class="cls-35" x="39.18" y="0">p</tspan><tspan x="47.3" y="0">a</tspan><tspan class="cls-37" x="54.48" y="0">t</tspan><tspan class="cls-29" x="59.29" y="0">t</tspan><tspan class="cls-34" x="64.04" y="0">e</tspan><tspan class="cls-41" x="71.39" y="0">r</tspan><tspan x="76.22" y="0">ns a</tspan><tspan class="cls-44" x="100.81" y="0">r</tspan><tspan class="cls-11" x="105.59" y="0">e desig</tspan><tspan class="cls-50" x="149.33" y="0">n</tspan><tspan class="cls-11" x="157.53" y="0">ed</tspan><tspan class="cls-29" x="7.39" y="14.4">t</tspan><tspan x="12.14" y="14.4">o highlight </tspan><tspan class="cls-52" x="82.31" y="14.4">k</tspan><tspan class="cls-53" x="89.44" y="14.4">e</tspan><tspan x="96.66" y="14.4">y </tspan><tspan class="cls-48" x="106.6" y="14.4">c</tspan><tspan x="113.35" y="14.4">o</tspan><tspan class="cls-50" x="120.97" y="14.4">n</tspan><tspan class="cls-48" x="129.18" y="14.4">c</tspan><tspan class="cls-11" x="135.94" y="14.4">epts </tspan><tspan x="6.51" y="28.8">within </tspan><tspan class="cls-43" x="48.53" y="28.8">A</tspan><tspan x="57.29" y="28.8">zu</tspan><tspan class="cls-47" x="71.67" y="28.8">r</tspan><tspan class="cls-34" x="76.45" y="28.8">e Open AI a</tspan><tspan class="cls-40" x="146.93" y="28.8">n</tspan><tspan x="155.14" y="28.8">d </tspan><tspan x="-2.13" y="43.2">de</tspan><tspan class="cls-40" x="13.4" y="43.2">m</tspan><tspan x="26.12" y="43.2">onst</tspan><tspan class="cls-48" x="52.89" y="43.2">r</tspan><tspan x="57.71" y="43.2">a</tspan><tspan class="cls-29" x="64.89" y="43.2">t</tspan><tspan x="69.64" y="43.2">e t</tspan><tspan class="cls-50" x="85.18" y="43.2">h</tspan><tspan class="cls-11" x="93.39" y="43.2">e in</tspan><tspan class="cls-29" x="115.48" y="43.2">t</tspan><tspan x="120.23" y="43.2">eg</tspan><tspan class="cls-39" x="135.86" y="43.2">r</tspan><tspan x="140.68" y="43.2">ation </tspan><tspan x="10.71" y="57.6">with ot</tspan><tspan class="cls-50" x="53.8" y="57.6">h</tspan><tspan class="cls-11" x="62.01" y="57.6">er se</tspan><tspan class="cls-23" x="90.86" y="57.6">r</tspan><tspan x="95.96" y="57.6">vi</tspan><tspan class="cls-48" x="106.01" y="57.6">c</tspan><tspan class="cls-11" x="112.77" y="57.6">es while</tspan><tspan x=".22" y="72">l</tspan><tspan class="cls-25" x="3.57" y="72">e</tspan><tspan class="cls-54" x="10.79" y="72">v</tspan><tspan class="cls-34" x="17.32" y="72">e</tspan><tspan class="cls-48" x="24.67" y="72">r</tspan><tspan class="cls-50" x="29.49" y="72">a</tspan><tspan x="36.7" y="72">gi</tspan><tspan class="cls-50" x="48.33" y="72">n</tspan><tspan x="56.54" y="72">g t</tspan><tspan class="cls-40" x="73.01" y="72">h</tspan><tspan class="cls-34" x="81.22" y="72">e R</tspan><tspan class="cls-53" x="100.52" y="72">A</tspan><tspan class="cls-34" x="109.18" y="72">G </tspan><tspan class="cls-35" x="121.67" y="72">p</tspan><tspan class="cls-34" x="129.8" y="72">a</tspan><tspan class="cls-37" x="136.97" y="72">t</tspan><tspan class="cls-29" x="141.78" y="72">t</tspan><tspan x="146.54" y="72">e</tspan><tspan class="cls-41" x="153.88" y="72">r</tspan><tspan x="158.72" y="72">n, </tspan><tspan x="23.02" y="86.4">with an emphasis on</tspan><tspan x="18.71" y="100.8">ensu</tspan><tspan class="cls-41" x="48.36" y="100.8">r</tspan><tspan x="53.2" y="100.8">i</tspan><tspan class="cls-50" x="56.54" y="100.8">n</tspan><tspan x="64.75" y="100.8">g secu</tspan><tspan class="cls-41" x="104.59" y="100.8">r</tspan><tspan class="cls-11" x="109.43" y="100.8">i</tspan><tspan class="cls-25" x="112.77" y="100.8">t</tspan><tspan class="cls-11" x="117.62" y="100.8">y a</tspan><tspan class="cls-40" x="134.73" y="100.8">n</tspan><tspan x="142.94" y="100.8">d </tspan><tspan x="21.86" y="115.2">enha</tspan><tspan class="cls-50" x="52.73" y="115.2">n</tspan><tspan x="60.94" y="115.2">ci</tspan><tspan class="cls-50" x="71.14" y="115.2">n</tspan><tspan x="79.34" y="115.2">g scalabili</tspan><tspan class="cls-53" x="139.64" y="115.2">t</tspan><tspan x="144.49" y="115.2">y</tspan></text>
      </g>
      <path d="M729.38,179.44c1.02-3.07,.67-6.42-.97-9.21-2.46-4.27-7.39-6.47-12.21-5.44-4.2-4.67-11.39-5.05-16.07-.85-1.48,1.33-2.59,3.03-3.21,4.93-3.17,.65-5.9,2.63-7.5,5.44-2.48,4.27-1.92,9.65,1.39,13.31-1.02,3.07-.67,6.42,.96,9.21,2.46,4.28,7.4,6.47,12.22,5.44,2.14,2.42,5.23,3.79,8.46,3.77,4.94,0,9.32-3.18,10.83-7.89,3.17-.65,5.9-2.63,7.5-5.44,2.45-4.26,1.89-9.61-1.4-13.27h0Zm-16.92,23.65c-1.97,0-3.88-.69-5.4-1.95l.27-.15,8.96-5.17c.45-.27,.73-.75,.74-1.28v-12.64l3.79,2.19s.06,.06,.07,.1v10.47c0,4.65-3.78,8.42-8.43,8.43Zm-18.12-7.74c-.99-1.71-1.34-3.71-1-5.65l.27,.16,8.97,5.17c.45,.27,1.01,.27,1.46,0l10.96-6.32v4.37s-.03,.09-.06,.12l-9.08,5.24c-4.03,2.32-9.19,.94-11.52-3.09h0Zm-2.36-19.52c1-1.72,2.57-3.03,4.44-3.7v10.65c0,.52,.27,1.01,.73,1.27l10.91,6.29-3.79,2.19s-.09,.02-.13,0l-9.06-5.23c-4.03-2.33-5.41-7.48-3.09-11.52v.04Zm31.13,7.23l-10.94-6.35,3.78-2.18s.09-.02,.13,0l9.06,5.24c4.03,2.33,5.42,7.48,3.09,11.51-.98,1.7-2.52,3-4.36,3.69v-10.65c-.02-.52-.31-1-.76-1.25h0Zm3.77-5.67l-.27-.16-8.95-5.22c-.45-.27-1.02-.27-1.47,0l-10.95,6.32v-4.37s.02-.09,.05-.12l9.06-5.23c4.04-2.33,9.2-.94,11.52,3.1,.98,1.71,1.34,3.7,1,5.64v.04Zm-23.71,7.76l-3.79-2.18s-.06-.06-.07-.11v-10.44c0-4.66,3.79-8.43,8.45-8.43,1.97,0,3.87,.69,5.38,1.95l-.27,.15-8.96,5.17c-.45,.27-.73,.75-.74,1.28v12.61Zm2.05-4.44l4.88-2.81,4.89,2.81v5.63l-4.87,2.81-4.89-2.81v-5.63Z"/>
    </g>
    <g id="aiservices-in-a-box">
      <g id="icons">
        <g>
          <path class="cls-26" d="M545.75,170.7c-10.52,0-18.87-10.07-19.22-10.5-.18-.22-.18-.54,0-.76,.35-.43,8.7-10.5,19.22-10.5s18.87,10.07,19.22,10.5c.18,.22,.18,.54,0,.76-.35,.43-8.7,10.5-19.22,10.5Zm-17.95-10.89c1.64,1.84,9.13,9.68,17.95,9.68s16.31-7.84,17.95-9.68c-1.64-1.84-9.13-9.68-17.95-9.68s-16.31,7.84-17.95,9.68Z"/>
          <path class="cls-26" d="M545.75,170.7c-6,0-10.89-4.88-10.89-10.89s4.88-10.89,10.89-10.89,10.89,4.88,10.89,10.89-4.88,10.89-10.89,10.89Zm0-20.56c-5.34,0-9.68,4.34-9.68,9.68s4.34,9.68,9.68,9.68,9.68-4.34,9.68-9.68-4.34-9.68-9.68-9.68Z"/>
          <path class="cls-26" d="M545.75,168.28c-4.67,0-8.47-3.8-8.47-8.47s3.8-8.47,8.47-8.47,8.47,3.8,8.47,8.47-3.8,8.47-8.47,8.47Zm0-15.72c-4,0-7.26,3.26-7.26,7.26s3.26,7.26,7.26,7.26,7.26-3.26,7.26-7.26-3.26-7.26-7.26-7.26Z"/>
          <rect class="cls-26" x="541.52" y="155.58" width="1.21" height="1.21"/>
          <path class="cls-26" d="M545.5,164.65c-2.42,0-4.84-2.17-4.84-4.84v-1.45h.86c1.67,0,2.77-1.11,2.77-2.78v-.85h1.46c2.67,0,4.84,2.42,4.84,4.84h-1.21c0-1.81-1.63-3.63-3.63-3.63h-.04c-.27,1.81-2.02,3.56-3.84,3.83v.04c0,2,1.81,3.63,3.63,3.63v1.21Z"/>
          <path class="cls-26" d="M548.17,164.65c-1.33,0-2.42-1.09-2.42-2.42s1.08-2.42,2.42-2.42,2.42,1.09,2.42,2.42-1.08,2.42-2.42,2.42Zm0-3.63c-.67,0-1.21,.54-1.21,1.21s.54,1.21,1.21,1.21,1.21-.54,1.21-1.21-.54-1.21-1.21-1.21Z"/>
        </g>
        <rect class="cls-26" x="492.6" y="204.7" width="2" height="3"/>
        <rect class="cls-26" x="495.1" y="201.7" width="2" height="9"/>
        <rect class="cls-26" x="498.1" y="197.7" width="2" height="17"/>
        <rect class="cls-26" x="501.1" y="199.7" width="2" height="13"/>
        <rect class="cls-26" x="504.1" y="202.7" width="2" height="6"/>
        <rect class="cls-26" x="507.1" y="198.7" width="2" height="15"/>
        <rect class="cls-26" x="510.1" y="195.7" width="2" height="21"/>
        <rect class="cls-26" x="513.1" y="200.7" width="2" height="11"/>
        <rect class="cls-26" x="516.1" y="203.7" width="2" height="5"/>
        <polygon class="cls-2" points="517.05 173.22 504.42 186.55 491.73 174.56 504.37 161.23 517.05 173.22"/>
        <circle class="cls-26" cx="504.42" cy="174.23" r="3.5"/>
        <circle class="cls-5" cx="504.42" cy="186.68" r="3.5"/>
        <circle class="cls-5" cx="491.42" cy="174.23" r="3.5"/>
        <circle class="cls-5" cx="504.42" cy="162.68" r="3.5"/>
        <circle class="cls-5" cx="517.43" cy="174.23" r="3.5"/>
        <circle class="cls-5" cx="517.43" cy="162.73" r="3.5"/>
        <circle class="cls-5" cx="491.42" cy="162.73" r="3.5"/>
        <circle class="cls-5" cx="491.42" cy="186.73" r="3.5"/>
        <circle class="cls-5" cx="517.43" cy="186.68" r="3.5"/>
      </g>
      <g id="text-2" data-name="text">
        <text class="cls-27" transform="translate(444.06 243.47)"><tspan class="cls-18" x="0" y="0">AI Se</tspan><tspan class="cls-17" x="30.53" y="0">r</tspan><tspan class="cls-18" x="35.63" y="0">vi</tspan><tspan class="cls-20" x="45.68" y="0">c</tspan><tspan class="cls-10" x="52.44" y="0">es</tspan><tspan class="cls-7" x="65.8" y="0">-in-a-B</tspan><tspan class="cls-8" x="107.03" y="0">o</tspan><tspan class="cls-6" x="114.32" y="0">x</tspan></text>
        <text class="cls-19" transform="translate(422.64 276.9)"><tspan x="0" y="0">T</tspan><tspan class="cls-50" x="7.04" y="0">h</tspan><tspan x="15.25" y="0">ese </tspan><tspan class="cls-35" x="39.18" y="0">p</tspan><tspan x="47.3" y="0">a</tspan><tspan class="cls-37" x="54.48" y="0">t</tspan><tspan class="cls-29" x="59.29" y="0">t</tspan><tspan class="cls-34" x="64.04" y="0">e</tspan><tspan class="cls-41" x="71.39" y="0">r</tspan><tspan x="76.22" y="0">ns e</tspan><tspan class="cls-50" x="100.98" y="0">n</tspan><tspan class="cls-48" x="109.19" y="0">c</tspan><tspan x="115.94" y="0">om</tspan><tspan class="cls-35" x="136.25" y="0">p</tspan><tspan x="144.37" y="0">ass</tspan><tspan x="1.52" y="14.4">e</tspan><tspan class="cls-50" x="8.86" y="14.4">n</tspan><tspan x="17.07" y="14.4">d</tspan><tspan class="cls-38" x="25.25" y="14.4">-</tspan><tspan class="cls-29" x="29.97" y="14.4">t</tspan><tspan class="cls-38" x="34.72" y="14.4">o-</tspan><tspan class="cls-34" x="47.18" y="14.4">e</tspan><tspan class="cls-50" x="54.52" y="14.4">n</tspan><tspan class="cls-11" x="62.73" y="14.4">d in</tspan><tspan class="cls-29" x="85.66" y="14.4">t</tspan><tspan x="90.41" y="14.4">eg</tspan><tspan class="cls-39" x="106.04" y="14.4">r</tspan><tspan x="110.86" y="14.4">ation </tspan><tspan class="cls-48" x="145.37" y="14.4">f</tspan><tspan x="149.51" y="14.4">or</tspan><tspan class="cls-32" x="28.03" y="28.8">A</tspan><tspan x="36.79" y="28.8">zu</tspan><tspan class="cls-47" x="51.17" y="28.8">r</tspan><tspan class="cls-34" x="55.94" y="28.8">e AI Se</tspan><tspan class="cls-36" x="97.04" y="28.8">r</tspan><tspan x="102.14" y="28.8">vi</tspan><tspan class="cls-48" x="112.2" y="28.8">c</tspan><tspan x="118.96" y="28.8">es </tspan><tspan class="cls-50" x="10.8" y="43.2">a</tspan><tspan class="cls-11" x="18.01" y="43.2">dd</tspan><tspan class="cls-47" x="34.38" y="43.2">r</tspan><tspan class="cls-34" x="39.16" y="43.2">essi</tspan><tspan class="cls-50" x="61.87" y="43.2">n</tspan><tspan x="70.08" y="43.2">g secu</tspan><tspan class="cls-47" x="109.92" y="43.2">r</tspan><tspan x="114.7" y="43.2">e data</tspan><tspan x=".65" y="57.6">la</tspan><tspan class="cls-50" x="11.17" y="57.6">n</tspan><tspan class="cls-11" x="19.38" y="57.6">di</tspan><tspan class="cls-40" x="30.91" y="57.6">n</tspan><tspan class="cls-34" x="39.12" y="57.6">g, D</tspan><tspan class="cls-25" x="63.26" y="57.6">e</tspan><tspan class="cls-41" x="70.49" y="57.6">v</tspan><tspan x="77.11" y="57.6">Ops p</tspan><tspan class="cls-48" x="112.8" y="57.6">r</tspan><tspan class="cls-50" x="117.62" y="57.6">a</tspan><tspan class="cls-12" x="124.84" y="57.6">c</tspan><tspan x="131.77" y="57.6">ti</tspan><tspan class="cls-48" x="140.09" y="57.6">c</tspan><tspan x="146.84" y="57.6">es,</tspan><tspan x=".73" y="72">a</tspan><tspan class="cls-50" x="7.91" y="72">n</tspan><tspan x="16.12" y="72">d t</tspan><tspan class="cls-40" x="32.5" y="72">h</tspan><tspan x="40.7" y="72">e utilization of </tspan><tspan class="cls-29" x="130.26" y="72">t</tspan><tspan x="135.01" y="72">ools </tspan><tspan x="-2.48" y="86.4">li</tspan><tspan class="cls-52" x="4.22" y="86.4">k</tspan><tspan x="11.35" y="86.4">e Docu</tspan><tspan class="cls-40" x="54.43" y="86.4">m</tspan><tspan class="cls-34" x="67.15" y="86.4">ent In</tspan><tspan class="cls-29" x="102.75" y="86.4">t</tspan><tspan class="cls-34" x="107.5" y="86.4">ellige</tspan><tspan class="cls-40" x="140.51" y="86.4">n</tspan><tspan class="cls-39" x="148.72" y="86.4">c</tspan><tspan class="cls-11" x="155.48" y="86.4">e </tspan><tspan x="42.08" y="100.8">a</tspan><tspan class="cls-50" x="49.26" y="100.8">n</tspan><tspan x="57.47" y="100.8">d </tspan><tspan class="cls-33" x="68.88" y="100.8">V</tspan><tspan x="77.26" y="100.8">ision AI</tspan></text>
      </g>
    </g>
    <g id="EdgeAI-in-a-box">
      <g id="text-3" data-name="text">
        <text class="cls-27" transform="translate(240.33 243.47)"><tspan class="cls-22" x="0" y="0">E</tspan><tspan class="cls-18" x="7.96" y="0">dge AI</tspan><tspan class="cls-7" x="47.5" y="0">-in-a-B</tspan><tspan class="cls-8" x="88.73" y="0">o</tspan><tspan class="cls-7" x="96.02" y="0">x</tspan></text>
        <text class="cls-19" transform="translate(213.24 276.9)"><tspan x="0" y="0">E</tspan><tspan class="cls-50" x="8.04" y="0">n</tspan><tspan class="cls-48" x="16.25" y="0">c</tspan><tspan x="23" y="0">om</tspan><tspan class="cls-35" x="43.31" y="0">p</tspan><tspan x="51.43" y="0">asses e</tspan><tspan class="cls-40" x="94.56" y="0">n</tspan><tspan x="102.77" y="0">d</tspan><tspan class="cls-38" x="110.95" y="0">-</tspan><tspan class="cls-29" x="115.67" y="0">t</tspan><tspan class="cls-38" x="120.42" y="0">o-</tspan><tspan class="cls-34" x="132.87" y="0">e</tspan><tspan class="cls-50" x="140.22" y="0">n</tspan><tspan class="cls-11" x="148.43" y="0">d</tspan><tspan x="-2.71" y="14.4">in</tspan><tspan class="cls-29" x="8.81" y="14.4">t</tspan><tspan x="13.56" y="14.4">eg</tspan><tspan class="cls-39" x="29.18" y="14.4">r</tspan><tspan x="34.01" y="14.4">ation with </tspan><tspan class="cls-43" x="99.02" y="14.4">A</tspan><tspan x="107.78" y="14.4">zu</tspan><tspan class="cls-47" x="122.16" y="14.4">r</tspan><tspan x="126.93" y="14.4">e ML </tspan><tspan class="cls-39" x="1.53" y="28.8">f</tspan><tspan class="cls-11" x="5.67" y="28.8">or c</tspan><tspan class="cls-47" x="28.29" y="28.8">r</tspan><tspan class="cls-54" x="33.07" y="28.8">e</tspan><tspan x="40.23" y="28.8">ati</tspan><tspan class="cls-50" x="55.72" y="28.8">n</tspan><tspan x="63.93" y="28.8">g a </tspan><tspan class="cls-40" x="85.84" y="28.8">m</tspan><tspan class="cls-11" x="98.56" y="28.8">odel a</tspan><tspan class="cls-50" x="135.46" y="28.8">n</tspan><tspan x="143.67" y="28.8">d </tspan><tspan x="-4.78" y="43.2">depl</tspan><tspan class="cls-54" x="22.28" y="43.2">o</tspan><tspan x="29.72" y="43.2">yi</tspan><tspan class="cls-50" x="39.77" y="43.2">n</tspan><tspan x="47.98" y="43.2">g that </tspan><tspan class="cls-40" x="88" y="43.2">m</tspan><tspan x="100.72" y="43.2">odel </tspan><tspan class="cls-29" x="130.44" y="43.2">t</tspan><tspan x="135.2" y="43.2">o an</tspan><tspan x="-1.73" y="57.6">edge d</tspan><tspan class="cls-25" x="40.83" y="57.6">e</tspan><tspan x="48.05" y="57.6">vi</tspan><tspan class="cls-39" x="58.11" y="57.6">c</tspan><tspan class="cls-11" x="64.87" y="57.6">e with I</tspan><tspan class="cls-30" x="109.66" y="57.6">o</tspan><tspan x="116.31" y="57.6">T </tspan><tspan class="cls-41" x="126.58" y="57.6">E</tspan><tspan x="134.54" y="57.6">dge</tspan><tspan x="27.09" y="72">a</tspan><tspan class="cls-50" x="34.27" y="72">n</tspan><tspan x="42.47" y="72">d</tspan><tspan class="cls-51" x="50.66" y="72">/</tspan><tspan class="cls-11" x="54.08" y="72">or A</tspan><tspan class="cls-54" x="78.63" y="72">K</tspan><tspan class="cls-34" x="87.08" y="72">S </tspan><tspan class="cls-41" x="97.76" y="72">E</tspan><tspan x="105.71" y="72">dge</tspan></text>
      </g>
      <g id="icons-2" data-name="icons">
        <g>
          <circle class="cls-16" cx="283.23" cy="203.06" r="6.09"/>
          <circle class="cls-16" cx="311.02" cy="192.43" r="6.09"/>
          <circle class="cls-16" cx="270.6" cy="178.7" r="9.97"/>
          <circle class="cls-16" cx="295.85" cy="171.72" r="7.75"/>
          <g>
            <rect class="cls-42" x="288.87" y="183.47" width="3.32" height="1.11" transform="translate(14.17 388.71) rotate(-68.88)"/>
            <rect class="cls-42" x="287.22" y="187.62" width="3.32" height="1.11" transform="translate(9.25 389.82) rotate(-68.88)"/>
            <rect class="cls-42" x="285.68" y="191.8" width="3.32" height="1.11" transform="translate(4.35 391.06) rotate(-68.88)"/>
            <path class="cls-42" d="M317.11,189.66c-.78-1.66-1.99-2.88-3.65-3.54-1.88-.78-3.88-.55-5.54,.33l-6.75-8.42c1.11-.89,1.88-1.99,2.44-3.43,1.66-4.32-.55-9.08-4.76-10.74-4.32-1.66-9.08,.55-10.74,4.76-.55,1.55-.66,3.1-.33,4.65l-7.31,1.55c-1-2.66-3.1-4.98-6.09-6.09-2.66-1-5.54-.89-8.08,.22-2.55,1.11-4.54,3.21-5.54,5.87-1,2.66-.89,5.54,.22,8.08s3.21,4.54,5.87,5.54c1.22,.44,2.55,.66,3.76,.66,1.11,0,2.1-.11,3.1-.44l5.43,9.08c-1,.78-1.66,1.66-2.21,2.88-1.33,3.43,.44,7.31,3.88,8.64,.78,.33,1.55,.44,2.33,.44,2.66,0,5.2-1.66,6.2-4.32,.33-1,.44-1.99,.44-2.99l15.83-6.2c.78,1.11,1.77,1.88,2.99,2.33,.78,.33,1.55,.44,2.44,.44s1.88-.22,2.66-.55c1.66-.78,2.88-1.99,3.54-3.65,.66-1.66,.66-3.43-.11-5.09Zm-28.01-20.49c1.11-2.88,3.88-4.65,6.75-4.65,.89,0,1.77,.11,2.55,.44,3.65,1.44,5.54,5.65,4.1,9.3-1.44,3.65-5.65,5.54-9.3,4.1-1.77-.66-3.21-1.99-3.99-3.76-.66-1.66-.78-3.65-.11-5.43Zm-21.81,18.27c-2.33-.89-4.21-2.66-5.2-4.98s-1.11-4.87-.22-7.2c.89-2.33,2.66-4.21,4.98-5.2,1.22-.55,2.55-.78,3.88-.78,1.11,0,2.33,.22,3.32,.66,4.87,1.88,7.31,7.31,5.43,12.18-1.88,4.76-7.31,7.2-12.18,5.32Zm21.15,17.61c-1.11,2.88-4.32,4.32-7.2,3.21s-4.32-4.32-3.21-7.2,4.32-4.32,7.2-3.21c2.88,1.11,4.32,4.32,3.21,7.2Zm1.22-3.65c-.44-1.88-1.77-3.43-3.54-4.32l.78-1.99-1.11-.33-.66,1.88c-1.66-.55-3.43-.33-4.98,.55l-5.32-8.86c2.55-1.11,4.65-3.1,5.65-5.87,.78-2.1,.89-4.43,.33-6.42l7.2-1.55c.66,1.88,1.99,3.54,3.88,4.54l-.89,2.33,1,.44,.89-2.21c1,.33,1.99,.55,2.99,.55,1.55,0,3.1-.44,4.43-1.33l6.75,8.42c-.89,.66-1.66,1.66-2.1,2.88-.66,1.66-.55,3.43,.11,5.09,0,.11,.11,.11,.11,.22l-15.5,5.98Zm26.58-6.98c-.55,1.33-1.55,2.44-2.88,3.1-1.33,.55-2.88,.66-4.21,.11s-2.44-1.55-3.1-2.88c-.55-1.33-.66-2.88-.11-4.21,.89-2.21,2.99-3.54,5.2-3.54,.66,0,1.33,.11,1.99,.33,1.33,.55,2.44,1.55,3.1,2.88,.44,1.22,.55,2.77,0,4.21Z"/>
          </g>
        </g>
      </g>
    </g>
    <g id="ML-in-a-box">
      <g id="text-4" data-name="text">
        <text class="cls-27" transform="translate(44.33 243.47)"><tspan class="cls-18" x="0" y="0">ML</tspan><tspan class="cls-6" x="18.59" y="0">-in-a-B</tspan><tspan class="cls-9" x="59.82" y="0">o</tspan><tspan class="cls-7" x="67.12" y="0">x</tspan></text>
        <text class="cls-19" transform="translate(0 276.9)"><tspan x="0" y="0">E</tspan><tspan class="cls-50" x="8.04" y="0">n</tspan><tspan class="cls-11" x="16.25" y="0">d</tspan><tspan class="cls-24" x="24.43" y="0">-</tspan><tspan class="cls-29" x="29.15" y="0">t</tspan><tspan class="cls-24" x="33.9" y="0">o</tspan><tspan x="41.64" y="0">-E</tspan><tspan class="cls-50" x="54.28" y="0">n</tspan><tspan class="cls-11" x="62.48" y="0">d In</tspan><tspan class="cls-29" x="85.79" y="0">t</tspan><tspan class="cls-34" x="90.54" y="0">eg</tspan><tspan class="cls-48" x="106.16" y="0">r</tspan><tspan x="110.99" y="0">ation </tspan><tspan class="cls-48" x="145.5" y="0">f</tspan><tspan x="149.64" y="0">or</tspan><tspan class="cls-43" x="6.22" y="14.4">A</tspan><tspan x="14.98" y="14.4">zu</tspan><tspan class="cls-47" x="29.36" y="14.4">r</tspan><tspan class="cls-34" x="34.13" y="14.4">e ML with emphasis</tspan><tspan x="5.72" y="28.8">on secu</tspan><tspan class="cls-47" x="53.07" y="28.8">r</tspan><tspan x="57.85" y="28.8">e la</tspan><tspan class="cls-50" x="78.94" y="28.8">n</tspan><tspan x="87.15" y="28.8">di</tspan><tspan class="cls-50" x="98.68" y="28.8">n</tspan><tspan x="106.89" y="28.8">g </tspan><tspan class="cls-48" x="118.4" y="28.8">z</tspan><tspan x="124.55" y="28.8">o</tspan><tspan class="cls-50" x="132.17" y="28.8">n</tspan><tspan x="140.38" y="28.8">es,</tspan><tspan x="20.71" y="43.2">M</tspan><tspan class="cls-37" x="32.17" y="43.2">L</tspan><tspan class="cls-11" x="39.14" y="43.2">Ops a</tspan><tspan class="cls-50" x="73.82" y="43.2">n</tspan><tspan x="82.02" y="43.2">d D</tspan><tspan class="cls-25" x="103.35" y="43.2">e</tspan><tspan class="cls-41" x="110.57" y="43.2">v</tspan><tspan x="117.2" y="43.2">Ops</tspan><tspan x="11.75" y="57.6">p</tspan><tspan class="cls-48" x="19.94" y="57.6">r</tspan><tspan class="cls-50" x="24.76" y="57.6">a</tspan><tspan class="cls-12" x="31.97" y="57.6">c</tspan><tspan class="cls-34" x="38.91" y="57.6">tics a</tspan><tspan class="cls-50" x="70.49" y="57.6">n</tspan><tspan x="78.7" y="57.6">d t</tspan><tspan class="cls-50" x="95.08" y="57.6">h</tspan><tspan x="103.29" y="57.6">e use of</tspan><tspan x="19.8" y="72">Responsible AI (RAI)</tspan><tspan x="51.37" y="86.4">p</tspan><tspan class="cls-41" x="59.56" y="86.4">r</tspan><tspan x="64.39" y="86.4">i</tspan><tspan class="cls-50" x="67.74" y="86.4">n</tspan><tspan x="75.95" y="86.4">ci</tspan><tspan class="cls-35" x="86.15" y="86.4">p</tspan><tspan class="cls-34" x="94.27" y="86.4">als</tspan></text>
        <text class="cls-28" transform="translate(456.61 160.63)"><tspan x="0" y="0">,,</tspan></text>
      </g>
      <g id="icons-3" data-name="icons">
        <g>
          <path class="cls-13" d="M111.39,184.3c0-1.29-.52-2.51-1.44-3.41s-2.14-1.4-3.43-1.4h-1.18v-3.64c-.1-2.17-1.66-4-3.74-4.48-.47-.99-1.25-1.88-2.29-2.51l-6.42-3.83c-1.3-.77-2.58-1.14-3.71-1.07-1.1,.07-2.01,.56-2.66,1.42-1.52-1.93-4.28-2.98-7.32-2.78l-.06-.07-.11,.09c-.85,.07-1.72,.23-2.58,.51l-12.61,3.95c-3.27,1.03-5.79,3.33-6.66,5.95-1.58,.16-3.05,1.08-3.83,2.6l-3.04,5.91c-.59,1.15-.7,2.46-.31,3.69,.32,1,.94,1.85,1.78,2.45,.12,1.41,.88,3.16,2.34,4.03l5.71,3.4c.76,.45,1.6,.68,2.47,.68,.13,0,.26,0,.39-.02h.77c.15,2.53,2.26,4.55,4.83,4.55h10.66c1.32,0,2.53-.52,3.42-1.45,.9-.94,1.35-2.21,1.29-3.55v-3.23l-3.06-3.06c.28-.33,.44-.76,.44-1.22,0-1.06-.86-1.92-1.92-1.92s-1.92,.86-1.92,1.92,.86,1.92,1.92,1.92c.36,0,.69-.1,.98-.27l2.9,2.9v2.98c.06,1.18-.33,2.28-1.11,3.09-.77,.81-1.82,1.25-2.95,1.25h-10.66c-2.21,0-4.03-1.73-4.18-3.9h9.22c.17,.89,.95,1.56,1.88,1.56,1.06,0,1.92-.86,1.92-1.92s-.86-1.92-1.92-1.92c-.96,0-1.75,.71-1.89,1.63h-10.67c-.87,.07-1.74-.13-2.49-.58l-5.71-3.4c-1.11-.66-1.75-1.92-1.96-3.06l10.92,.03c.15,.9,.94,1.6,1.89,1.6,1.06,0,1.92-.86,1.92-1.92s-.86-1.92-1.92-1.92c-.95,0-1.73,.69-1.89,1.59l-10.79-.03c-.96-.52-1.67-1.37-2.01-2.42-.34-1.07-.25-2.2,.27-3.2l3.05-5.91c.64-1.23,1.8-2.01,3.07-2.22-.04,.2-.08,.41-.1,.61v6.77c-.91,.15-1.6,.94-1.6,1.89,0,1.06,.86,1.92,1.92,1.92s1.92-.86,1.92-1.92c0-.95-.69-1.73-1.59-1.89v-6.71c.03-.24,.08-.48,.14-.72,.63,0,1.26,.14,1.86,.44l10.34,10.34c-.18,.29-.28,.63-.28,1,0,1.06,.86,1.92,1.92,1.92s1.92-.86,1.92-1.92-.86-1.92-1.92-1.92c-.46,0-.88,.16-1.21,.43l-10.35-10.35-.04-.04-.04-.02c-.64-.33-1.32-.5-2-.53,.78-2.1,2.73-3.96,5.27-5l8.83,8.76c-.17,.29-.27,.62-.27,.97,0,1.06,.86,1.92,1.92,1.92s1.92-.86,1.92-1.92-.86-1.92-1.92-1.92c-.47,0-.9,.17-1.23,.45l-8.58-8.52c.08-.03,.15-.05,.23-.08l6.92-2.17,4.29,4.43c-.21,.31-.33,.67-.33,1.07,0,1.06,.86,1.92,1.92,1.92s1.92-.86,1.92-1.92-.86-1.92-1.92-1.92c-.43,0-.82,.14-1.14,.38l-4.05-4.18,4.99-1.57c.76-.24,1.52-.39,2.27-.46l2.45,3v12.69c-.87,.18-1.53,.95-1.53,1.88,0,1.06,.86,1.92,1.92,1.92s1.92-.86,1.92-1.92c0-.97-.72-1.77-1.66-1.9v-12.9l-2.3-2.82c3.37-.08,6.28,1.47,7.13,4.1v40.9c-.9,.15-1.59,.94-1.59,1.89,0,1.06,.86,1.92,1.92,1.92s1.92-.86,1.92-1.92c0-.95-.69-1.73-1.59-1.89v-41.05c-.15-.44-.34-.84-.57-1.23,.55-.82,1.32-1.28,2.31-1.34,1-.07,2.15,.28,3.34,.98l2.54,1.51-2.57,4.47c-.23-.1-.49-.16-.76-.16-1.06,0-1.92,.86-1.92,1.92s.86,1.92,1.92,1.92,1.92-.86,1.92-1.92c0-.55-.24-1.05-.62-1.4l2.58-4.49,3.32,1.98c2.07,1.24,3,3.64,2.16,5.59l-5.02,8.82c-.17-.05-.36-.08-.54-.08-1.06,0-1.92,.86-1.92,1.92s.86,1.92,1.92,1.92,1.92-.86,1.92-1.92c0-.64-.31-1.2-.79-1.55l5.01-8.81,.02-.03c.44-1.01,.47-2.12,.16-3.17,1.59,.55,2.74,2.03,2.82,3.74v3.86s-7.33,11.77-7.33,11.77c-.24-.11-.5-.17-.78-.17-1.06,0-1.92,.86-1.92,1.92s.86,1.92,1.92,1.92,1.92-.86,1.92-1.92c0-.55-.23-1.04-.6-1.39l7.28-11.72h1.32c1.13-.01,2.18,.42,2.97,1.21,.8,.79,1.24,1.84,1.25,2.96l.04,6.65c.02,2.31-1.86,4.21-4.17,4.22h-1.03c-.26,0-.51-.01-.76-.06l-.06,.32h0l.06-.32c-1.48-.26-2.71-1.29-3.22-2.71l2.16-3.51c.29,.18,.64,.29,1,.29,1.06,0,1.92-.86,1.92-1.92s-.86-1.92-1.92-1.92-1.92,.86-1.92,1.92c0,.45,.16,.87,.42,1.2l-2.33,3.79v.21l.02,.05c.54,1.62,1.89,2.83,3.55,3.19,.1,.35,.16,.71,.16,1.07l.02,1.03c.02,1.12-.39,2.18-1.17,2.99-.78,.81-1.82,1.27-2.95,1.29l-4.59,.13c-2.32,.05-4.23-1.8-4.28-4.11l-.02-1.03v-15.94c.9-.15,1.59-.94,1.59-1.89,0-1.06-.86-1.92-1.92-1.92s-1.92,.86-1.92,1.92c0,.95,.69,1.73,1.59,1.89v15.95l.02,1.03c.05,2.64,2.21,4.75,4.84,4.75,.03,0,.06,0,.1,0l4.59-.13c1.29-.02,2.5-.55,3.4-1.48s1.38-2.16,1.35-3.45l-.02-1.03c0-.33-.05-.65-.12-.96,.12,0,.23,.01,.35,.01h1.07c2.67-.02,4.83-2.21,4.81-4.88l-.04-6.65Zm-33.54,3.53c0-.7,.57-1.27,1.27-1.27s1.27,.57,1.27,1.27-.57,1.27-1.27,1.27-1.27-.57-1.27-1.27Zm-2.64,6.34c.7,0,1.27,.57,1.27,1.27s-.57,1.27-1.27,1.27-1.27-.57-1.27-1.27,.57-1.27,1.27-1.27Zm-9.92-7.62c.7,0,1.27,.57,1.27,1.27s-.57,1.27-1.27,1.27-1.27-.57-1.27-1.27,.57-1.27,1.27-1.27Zm7.49-1.09c0,.7-.57,1.27-1.27,1.27s-1.27-.57-1.27-1.27,.57-1.27,1.27-1.27,1.27,.57,1.27,1.27Zm-14.29-2.46c0,.7-.57,1.27-1.27,1.27s-1.27-.57-1.27-1.27,.57-1.27,1.27-1.27,1.27,.57,1.27,1.27Zm16.4-5.22c0,.7-.57,1.27-1.27,1.27s-1.27-.57-1.27-1.27,.57-1.27,1.27-1.27,1.27,.57,1.27,1.27Zm3.23-6.73c0,.7-.57,1.27-1.27,1.27s-1.27-.57-1.27-1.27,.57-1.27,1.27-1.27,1.27,.57,1.27,1.27Zm4.91,9.82c0,.7-.57,1.27-1.27,1.27s-1.27-.57-1.27-1.27,.57-1.27,1.27-1.27,1.27,.57,1.27,1.27Zm5.42,29.27c0,.7-.57,1.27-1.27,1.27s-1.27-.57-1.27-1.27,.57-1.27,1.27-1.27,1.27,.57,1.27,1.27Zm3.34-35.52c-.7,0-1.27-.57-1.27-1.27s.57-1.27,1.27-1.27,1.27,.57,1.27,1.27-.57,1.27-1.27,1.27Zm3.81,12.34c-.7,0-1.27-.57-1.27-1.27s.57-1.27,1.27-1.27,1.27,.57,1.27,1.27-.57,1.27-1.27,1.27Zm1.02,7.57c-.7,0-1.27-.57-1.27-1.27s.57-1.27,1.27-1.27,1.27,.57,1.27,1.27-.57,1.27-1.27,1.27Zm8.17-8.52c.7,0,1.27,.57,1.27,1.27s-.57,1.27-1.27,1.27-1.27-.57-1.27-1.27,.57-1.27,1.27-1.27Zm-14.67-6.74c0-.7,.57-1.27,1.27-1.27s1.27,.57,1.27,1.27-.57,1.27-1.27,1.27-1.27-.57-1.27-1.27Z"/>
          <path class="cls-13" d="M87.17,212.2c-1.15,0-2.08-.93-2.08-2.08,0-.97,.66-1.8,1.59-2.02v-40.74c-.79-2.39-3.38-3.93-6.63-3.96l2.12,2.6v12.82c.95,.2,1.66,1.05,1.66,2.03,0,1.15-.93,2.08-2.08,2.08s-2.08-.93-2.08-2.08c0-.94,.64-1.76,1.53-2.01v-12.5l-2.36-2.88c-.73,.08-1.45,.23-2.15,.45l-4.74,1.49,3.77,3.89c.34-.22,.72-.33,1.12-.33,1.15,0,2.08,.93,2.08,2.08s-.93,2.08-2.08,2.08-2.08-.93-2.08-2.08c0-.37,.1-.73,.28-1.05l-4.13-4.27-6.81,2.13,8.29,8.23c.35-.26,.78-.4,1.22-.4,1.15,0,2.08,.93,2.08,2.08s-.93,2.08-2.08,2.08-2.08-.93-2.08-2.08c0-.33,.08-.65,.23-.94l-8.66-8.6c-2.35,.98-4.2,2.71-5,4.66,.65,.06,1.27,.23,1.84,.53l.12,.09,10.25,10.25c.35-.24,.77-.38,1.19-.38,1.15,0,2.08,.93,2.08,2.08s-.93,2.08-2.08,2.08-2.08-.93-2.08-2.08c0-.34,.08-.67,.24-.97l-10.24-10.24c-.51-.25-1.06-.39-1.63-.41-.04,.2-.08,.39-.1,.57v6.56c.93,.22,1.6,1.05,1.6,2.02,0,1.15-.93,2.08-2.08,2.08s-2.08-.93-2.08-2.08c0-.97,.66-1.8,1.59-2.02v-6.64c.02-.14,.04-.27,.06-.41-1.17,.26-2.18,1.02-2.72,2.09l-3.05,5.91c-.49,.96-.58,2.05-.26,3.08,.32,.99,.99,1.8,1.89,2.3l10.61,.03c.22-.93,1.05-1.59,2.02-1.59,1.15,0,2.08,.93,2.08,2.08s-.93,2.08-2.08,2.08c-.97,0-1.8-.66-2.02-1.6l-10.59-.03c.28,1.21,.96,2.23,1.85,2.76l5.71,3.4c.72,.43,1.56,.63,2.4,.56h.04s10.51,0,10.51,0c.21-.94,1.06-1.63,2.03-1.63,1.15,0,2.08,.93,2.08,2.08s-.93,2.08-2.08,2.08c-.95,0-1.78-.65-2.01-1.56h-8.91c.23,2.02,1.95,3.58,4,3.58h10.66c1.09,0,2.1-.43,2.83-1.2,.74-.78,1.12-1.84,1.06-2.97v-2.92s-2.77-2.77-2.77-2.77c-.3,.15-.62,.23-.95,.23-1.15,0-2.08-.93-2.08-2.08s.93-2.08,2.08-2.08,2.08,.93,2.08,2.08c0,.43-.14,.86-.39,1.21l3,3v3.3c.07,1.38-.4,2.69-1.33,3.66-.92,.97-2.18,1.5-3.54,1.5h-10.66c-2.59,0-4.75-1.99-4.98-4.55h-.62c-.12,.01-.26,.02-.39,.02-.9,0-1.78-.24-2.56-.71l-5.71-3.4c-1.57-.94-2.28-2.77-2.41-4.08-.85-.63-1.46-1.48-1.78-2.49-.41-1.27-.29-2.63,.32-3.82l3.04-5.91c.76-1.48,2.2-2.47,3.86-2.67,.93-2.67,3.5-4.94,6.74-5.96l12.61-3.95c.84-.26,1.7-.43,2.57-.51l.19-.16,.11,.13c2.96-.18,5.7,.85,7.25,2.68,.67-.8,1.58-1.25,2.65-1.32,1.16-.08,2.48,.31,3.8,1.09l6.42,3.83c1.02,.61,1.82,1.47,2.33,2.51,2.13,.53,3.69,2.41,3.8,4.61v3.49s1,0,1,0c1.35,0,2.6,.51,3.54,1.44,.95,.94,1.48,2.19,1.49,3.53l.04,6.65c.02,2.76-2.21,5.02-4.97,5.04h-1.03c-.06,0-.13,0-.18,0,.05,.27,.07,.53,.08,.78l.02,1.03c.03,1.34-.47,2.6-1.4,3.57-.93,.96-2.17,1.51-3.51,1.53l-4.69,.13c-2.71,0-4.95-2.2-5-4.91l-.02-1.03v-15.81c-.93-.22-1.59-1.05-1.59-2.02,0-1.15,.93-2.08,2.08-2.08s2.08,.93,2.08,2.08c0,.97-.66,1.8-1.59,2.02v15.81l.02,1.03c.04,2.18,1.85,3.95,4.03,3.95h.08s4.59-.13,4.59-.13c1.08-.02,2.09-.46,2.83-1.24,.75-.78,1.15-1.8,1.13-2.87l-.02-1.03c0-.31-.05-.63-.13-.94-1.67-.4-3.03-1.65-3.57-3.28l-.03-.1v-.26l2.29-3.73c-.25-.35-.39-.77-.39-1.21,0-1.15,.93-2.08,2.08-2.08s2.08,.93,2.08,2.08-.93,2.08-2.08,2.08c-.33,0-.65-.08-.95-.23l-2.03,3.31c.5,1.32,1.67,2.28,3.06,2.53h0c.23,.04,.46,.06,.69,.06h1.07c1.07-.01,2.08-.44,2.84-1.21,.76-.77,1.17-1.78,1.16-2.86l-.04-6.65c0-1.08-.43-2.09-1.2-2.84-.76-.75-1.76-1.16-2.82-1.16h-1.27s-7.17,11.53-7.17,11.53c.36,.39,.56,.88,.56,1.41,0,1.15-.93,2.08-2.08,2.08s-2.08-.93-2.08-2.08,.93-2.08,2.08-2.08c.24,0,.48,.04,.71,.13l7.22-11.62v-3.81c-.07-1.51-1.03-2.87-2.41-3.47,.24,1.02,.15,2.04-.25,2.96l-.02,.04-4.94,8.69c.47,.39,.74,.98,.74,1.59,0,1.15-.93,2.08-2.08,2.08s-2.08-.93-2.08-2.08,.93-2.08,2.08-2.08c.16,0,.31,.02,.47,.05l4.96-8.71c.8-1.86-.1-4.18-2.1-5.37l-3.18-1.9-2.44,4.24c.37,.39,.57,.9,.57,1.43,0,1.15-.93,2.08-2.08,2.08s-2.08-.93-2.08-2.08,.93-2.08,2.08-2.08c.24,0,.47,.04,.69,.12l2.42-4.21-2.4-1.43c-1.15-.69-2.28-1.02-3.24-.96-.89,.06-1.61,.46-2.13,1.19,.22,.38,.39,.77,.52,1.17l.02,.1v40.87c.93,.22,1.59,1.05,1.59,2.02,0,1.15-.93,2.08-2.08,2.08Zm-7.2-49.13c3.44,0,6.21,1.65,7.04,4.21v.05s0,41.04,0,41.04l-.14,.02c-.85,.14-1.46,.87-1.46,1.73,0,.97,.79,1.75,1.75,1.75s1.75-.79,1.75-1.75c0-.86-.61-1.58-1.46-1.73l-.14-.02v-41.14c-.14-.41-.32-.81-.55-1.19l-.05-.09,.06-.09c.58-.87,1.4-1.35,2.44-1.42,1.03-.07,2.22,.28,3.43,1l2.68,1.6-2.72,4.73-.13-.06c-.22-.1-.46-.15-.7-.15-.97,0-1.76,.79-1.76,1.75s.79,1.75,1.76,1.75,1.75-.79,1.75-1.75c0-.49-.2-.95-.56-1.28l-.1-.09,2.73-4.75,3.46,2.07c2.14,1.28,3.1,3.77,2.23,5.8l-5.09,8.95-.12-.04c-.16-.05-.33-.07-.5-.07-.97,0-1.75,.79-1.75,1.75s.79,1.75,1.75,1.75,1.75-.79,1.75-1.75c0-.56-.27-1.09-.73-1.42l-.12-.09,5.09-8.96c.41-.94,.46-2,.15-3.05l-.09-.3,.3,.1c1.67,.58,2.85,2.14,2.93,3.89v3.91s-7.43,11.93-7.43,11.93l-.13-.06c-.23-.1-.47-.15-.71-.15-.97,0-1.75,.79-1.75,1.75s.79,1.75,1.75,1.75,1.75-.79,1.75-1.75c0-.48-.19-.94-.55-1.27l-.1-.09,.07-.11,7.33-11.79h1.45c1.15,0,2.23,.45,3.05,1.26,.83,.82,1.29,1.91,1.3,3.07l.04,6.65c0,1.16-.44,2.26-1.26,3.09-.82,.83-1.91,1.29-3.07,1.3h-1.07c-.19,0-.39,0-.59-.03l-.03,.16-.32-.06,.03-.16c-1.46-.31-2.67-1.37-3.18-2.78l-.03-.07,2.28-3.72,.14,.09c.28,.17,.6,.26,.92,.26,.97,0,1.75-.79,1.75-1.75s-.79-1.75-1.75-1.75-1.75,.79-1.75,1.75c0,.4,.13,.78,.39,1.1l.07,.09-2.37,3.85v.16c.53,1.55,1.84,2.74,3.44,3.09l.09,.02,.03,.09c.11,.37,.16,.75,.17,1.12l.02,1.03c.02,1.16-.41,2.27-1.22,3.11-.81,.84-1.89,1.31-3.06,1.34l-4.68,.13c-2.35,0-4.31-1.92-4.35-4.27l-.02-1.03v-16.08l.14-.02c.85-.14,1.46-.87,1.46-1.73,0-.97-.79-1.75-1.75-1.75s-1.75,.79-1.75,1.75c0,.86,.61,1.58,1.46,1.73l.14,.02v16.08l.02,1.03c.05,2.53,2.15,4.59,4.68,4.59h.09s4.59-.13,4.59-.13c1.25-.02,2.42-.53,3.28-1.43,.87-.9,1.33-2.08,1.31-3.33l-.02-1.03c0-.3-.04-.61-.11-.93l-.05-.21,.22,.02c.11,0,.23,.01,.34,.01h1.06c2.58-.02,4.67-2.14,4.65-4.72l-.04-6.65c0-1.25-.5-2.42-1.39-3.3-.88-.87-2.06-1.35-3.3-1.35h-1.35v-3.81c-.1-2.07-1.59-3.85-3.62-4.32l-.08-.02-.03-.07c-.47-1-1.24-1.85-2.23-2.44l-6.42-3.83c-1.26-.75-2.52-1.12-3.61-1.05-1.04,.07-1.92,.54-2.54,1.36l-.13,.17-.13-.17c-1.35-1.72-3.76-2.74-6.45-2.74-.24,0-.49,0-.73,.02h-.08s0,0,0,0l-.02,.02h-.05c-.86,.07-1.72,.24-2.55,.5l-12.61,3.95c-3.18,1-5.69,3.24-6.56,5.85l-.03,.1h-.11c-1.59,.17-2.98,1.11-3.71,2.52l-3.04,5.91c-.57,1.11-.68,2.38-.3,3.57,.31,.96,.9,1.78,1.72,2.37l.06,.04v.07c.12,1.25,.77,3.02,2.27,3.91l5.71,3.4c.83,.5,1.8,.72,2.77,.65h.94s0,.15,0,.15c.15,2.46,2.2,4.39,4.66,4.39h10.66c1.27,0,2.44-.5,3.3-1.4,.87-.91,1.31-2.13,1.24-3.43v-3.17l-3.11-3.11,.1-.11c.26-.31,.41-.71,.41-1.12,0-.97-.79-1.75-1.75-1.75s-1.75,.79-1.75,1.75,.79,1.75,1.75,1.75c.31,0,.62-.09,.9-.25l.11-.07,3.04,3.04v3.04c.06,1.21-.35,2.35-1.15,3.2-.8,.84-1.89,1.3-3.07,1.3h-10.66c-2.28,0-4.19-1.78-4.34-4.05v-.17s9.52,0,9.52,0l.03,.13c.16,.83,.88,1.43,1.72,1.43,.97,0,1.75-.79,1.75-1.75s-.79-1.75-1.75-1.75c-.86,0-1.6,.64-1.73,1.49l-.02,.14h-10.78c-.13,.01-.25,.02-.37,.02-.78,0-1.55-.21-2.23-.62l-5.71-3.4c-1.02-.61-1.78-1.79-2.04-3.17l-.04-.19,11.25,.03,.02,.14c.14,.85,.87,1.46,1.73,1.46,.97,0,1.75-.79,1.75-1.75s-.79-1.75-1.75-1.75c-.86,0-1.58,.61-1.73,1.46l-.02,.14-10.97-.03-.04-.02c-1-.54-1.74-1.43-2.09-2.51-.35-1.11-.26-2.29,.28-3.32l3.05-5.91c.63-1.22,1.82-2.08,3.19-2.3l.24-.04-.05,.23c-.04,.2-.08,.4-.1,.6v6.89s-.14,.02-.14,.02c-.85,.14-1.46,.87-1.46,1.73,0,.97,.79,1.75,1.75,1.75s1.75-.79,1.75-1.75c0-.86-.61-1.58-1.46-1.73l-.14-.02v-6.85c.03-.26,.08-.51,.14-.76l.03-.12h.13c.68,0,1.33,.16,1.93,.46l.04,.03,10.44,10.44-.07,.11c-.17,.28-.26,.59-.26,.91,0,.97,.79,1.75,1.75,1.75s1.75-.79,1.75-1.75-.79-1.75-1.75-1.75c-.4,0-.79,.14-1.1,.39l-.11,.09-10.49-10.48c-.6-.31-1.25-.48-1.93-.51h-.22s.08-.22,.08-.22c.8-2.14,2.8-4.05,5.36-5.09l.1-.04,8.99,8.93-.06,.11c-.16,.27-.25,.58-.25,.89,0,.97,.79,1.75,1.75,1.75s1.75-.79,1.75-1.75-.79-1.75-1.75-1.75c-.41,0-.81,.15-1.13,.41l-.11,.1-8.87-8.81,.25-.08c.1-.03,.16-.06,.24-.08l7.02-2.2,4.45,4.6-.07,.11c-.2,.29-.3,.63-.3,.98,0,.97,.79,1.75,1.75,1.75s1.75-.79,1.75-1.75-.79-1.75-1.75-1.75c-.38,0-.74,.12-1.04,.35l-.11,.09-4.33-4.47,5.25-1.64c.75-.24,1.53-.39,2.3-.47h.09s2.54,3.1,2.54,3.1v12.88l-.13,.03c-.81,.17-1.4,.89-1.4,1.72,0,.97,.79,1.75,1.75,1.75s1.75-.79,1.75-1.75c0-.87-.65-1.62-1.51-1.74l-.14-.02v-12.99l-2.47-3.03h.33c.09-.01,.17-.01,.26-.01Zm7.2,48.49c-.79,0-1.43-.64-1.43-1.43s.64-1.43,1.43-1.43,1.43,.64,1.43,1.43-.64,1.43-1.43,1.43Zm0-2.54c-.61,0-1.11,.5-1.11,1.11s.5,1.11,1.11,1.11,1.11-.5,1.11-1.11-.5-1.11-1.11-1.11Zm-11.95-12.14c-.79,0-1.43-.64-1.43-1.44s.64-1.43,1.43-1.43,1.43,.64,1.43,1.43-.64,1.44-1.43,1.44Zm0-2.54c-.61,0-1.11,.5-1.11,1.11s.5,1.11,1.11,1.11,1.11-.5,1.11-1.11-.5-1.11-1.11-1.11Zm21.39,.35c-.79,0-1.43-.64-1.43-1.43s.64-1.43,1.43-1.43,1.43,.64,1.43,1.43-.64,1.43-1.43,1.43Zm0-2.54c-.61,0-1.11,.5-1.11,1.11s.5,1.11,1.11,1.11,1.11-.5,1.11-1.11-.5-1.11-1.11-1.11Zm-17.48-2.87c-.79,0-1.43-.64-1.43-1.43s.64-1.43,1.43-1.43,1.43,.64,1.43,1.43-.64,1.43-1.43,1.43Zm0-2.54c-.61,0-1.11,.5-1.11,1.11s.5,1.11,1.11,1.11,1.11-.5,1.11-1.11-.5-1.11-1.11-1.11Zm-13.83,2.53c-.79,0-1.43-.64-1.43-1.43s.64-1.43,1.43-1.43,1.43,.64,1.43,1.43-.64,1.43-1.43,1.43Zm0-2.54c-.61,0-1.11,.5-1.11,1.11s.5,1.11,1.11,1.11,1.11-.5,1.11-1.11-.5-1.11-1.11-1.11Zm39.48,2c-.79,0-1.44-.64-1.44-1.43s.64-1.43,1.44-1.43,1.43,.64,1.43,1.43-.64,1.43-1.43,1.43Zm0-2.54c-.61,0-1.11,.5-1.11,1.11s.5,1.11,1.11,1.11,1.11-.5,1.11-1.11-.5-1.11-1.11-1.11Zm-9.19,.95c-.79,0-1.44-.64-1.44-1.43s.64-1.43,1.44-1.43,1.43,.64,1.43,1.43-.64,1.43-1.43,1.43Zm0-2.54c-.61,0-1.11,.5-1.11,1.11s.5,1.11,1.11,1.11,1.11-.5,1.11-1.11-.5-1.11-1.11-1.11Zm-24.07,2.32c-.79,0-1.43-.64-1.43-1.43s.64-1.43,1.43-1.43,1.43,.64,1.43,1.43-.64,1.43-1.43,1.43Zm0-2.54c-.61,0-1.11,.5-1.11,1.11s.5,1.11,1.11,1.11,1.11-.5,1.11-1.11-.5-1.11-1.11-1.11Zm-14.29,.08c-.79,0-1.43-.64-1.43-1.43s.64-1.43,1.43-1.43,1.43,.64,1.43,1.43-.64,1.43-1.43,1.43Zm0-2.54c-.61,0-1.11,.5-1.11,1.11s.5,1.11,1.11,1.11,1.11-.5,1.11-1.11-.5-1.11-1.11-1.11Zm24.53,.41c-.79,0-1.43-.64-1.43-1.43s.64-1.43,1.43-1.43,1.43,.64,1.43,1.43-.64,1.43-1.43,1.43Zm0-2.54c-.61,0-1.11,.5-1.11,1.11s.5,1.11,1.11,1.11,1.11-.5,1.11-1.11-.5-1.11-1.11-1.11Zm9.62,.95c-.79,0-1.43-.64-1.43-1.43s.64-1.43,1.43-1.43,1.43,.64,1.43,1.43-.64,1.43-1.43,1.43Zm0-2.54c-.61,0-1.11,.5-1.11,1.11s.5,1.11,1.11,1.11,1.11-.5,1.11-1.11-.5-1.11-1.11-1.11Zm-17.76,1.05c-.79,0-1.43-.64-1.43-1.43s.64-1.43,1.43-1.43,1.43,.64,1.43,1.43-.64,1.43-1.43,1.43Zm0-2.54c-.61,0-1.11,.5-1.11,1.11s.5,1.11,1.11,1.11,1.11-.5,1.11-1.11-.5-1.11-1.11-1.11Zm18.16-1.89c-.79,0-1.44-.64-1.44-1.43s.64-1.43,1.44-1.43,1.43,.64,1.43,1.43-.64,1.43-1.43,1.43Zm0-2.54c-.61,0-1.11,.5-1.11,1.11s.5,1.11,1.11,1.11,1.11-.5,1.11-1.11-.5-1.11-1.11-1.11Zm-14.93,.24c-.79,0-1.43-.64-1.43-1.43s.64-1.43,1.43-1.43,1.43,.64,1.43,1.43-.64,1.43-1.43,1.43Zm0-2.54c-.61,0-1.11,.5-1.11,1.11s.5,1.11,1.11,1.11,1.11-.5,1.11-1.11-.5-1.11-1.11-1.11Z"/>
        </g>
      </g>
    </g>
    <g id="borders">
      <line class="cls-3" x1="607.08" y1="143.58" x2="607.08" y2="443.87"/>
      <line class="cls-3" x1="186.56" y1="143.58" x2="186.56" y2="443.87"/>
      <line class="cls-3" x1="398.24" y1="143.58" x2="398.24" y2="443.87"/>
    </g>
    <g id="Header">
      <g id="box">
        <g class="cls-45">
          <path class="cls-13" d="M430.96,65.46c.31,1.67-.37,2.55-1.82,3.34-6.17,3.33-12.26,6.8-18.37,10.23-4.62,2.6-9.24,5.21-13.85,7.82-.6,.34-1.08,.36-1.72,0-7.64-4.34-15.29-8.65-22.95-12.96-3.36-1.89-6.72-3.76-10.1-5.61-.65-.35-.92-.81-.92-1.54,0-14.14,0-28.29-.01-42.44,0-.73,.36-1.09,.91-1.4,2.69-1.53,5.37-3.06,8.06-4.58,5.6-3.16,11.21-6.31,16.82-9.46,2.81-1.58,5.63-3.16,8.44-4.74,.47-.26,.91-.24,1.38,.02,4.95,2.81,9.9,5.63,14.86,8.43,3.99,2.25,8.01,4.48,12,6.73,2.11,1.19,4.2,2.41,6.31,3.59,.7,.39,.98,.89,.98,1.72-.02,13.59-.02,27.18-.02,40.84m-51.5-6.37c-4.76,2.88-9.66,5.51-14.59,8.4,10.16,5.73,20.16,11.36,30.27,17.06v-1.04c0-4.34,0-8.67,.02-13.01,0-.53-.14-.75-.71-.71-.59,.04-1.2,.07-1.79-.06-2.98-.67-5.12-3.28-5.37-6.59-.04-.48-.2-.76-.63-.96-.65-.31-1.21-.76-1.69-1.29-.18-.19-.34-.35-.63-.36-1.49-.08-2.83-.6-4.06-1.42-.25-.17-.47-.29-.82-.02m42.26,11.64c1.81-1.02,3.61-2.04,5.45-3.07-.31-.39-.61-.52-.89-.68-1.33-.74-2.65-1.49-3.98-2.24-2.95-1.67-5.91-3.32-8.85-5.01-.47-.27-.73-.18-1.09,.21-1,1.06-2.29,1.77-3.72,1.78-1.36,.01-2.5,.32-3.58,1.11-.29,.22-.5,.38-.59,.77-.38,1.66-1.19,3.05-2.89,3.59-1.21,.38-2.5,.48-3.69,.95-.02,0-.05,0-.07,0-.65,0-.85,.31-.84,.95,.03,2.81,.02,5.63,.03,8.44,0,2.3,0,4.6,0,6.96,.5-.25,.95-.46,1.39-.71,3.17-1.79,6.34-3.59,9.52-5.37,4.57-2.56,9.14-5.1,13.8-7.7m-55.72-45.24c3.14,1.79,6.29,3.56,9.41,5.39,.56,.33,.92,.3,1.41-.07,1.02-.77,2.16-1.32,3.44-1.53,.23-.04,.36-.16,.5-.33,1.3-1.49,2.91-2.45,4.84-2.87,.58-.13,1.02-.38,1.46-.82,1.65-1.64,3.61-2.61,6-2.48,.63,.03,1.26,.19,1.99,.3V6.63c-10.48,5.81-20.85,11.66-31.32,17.6,.82,.45,1.5,.83,2.27,1.25m55.64,2.66c2.2-1.25,4.4-2.51,6.61-3.76,0-.08,0-.17,0-.25-10.36-5.82-20.72-11.64-31.18-17.51V22.89c.1,.01,.14,.03,.19,.03,.07,0,.14-.01,.2-.03,3.1-.75,5.62,.2,7.61,2.63,.23,.28,.5,.37,.83,.43,2.05,.39,3.83,1.28,5.19,2.91,.17,.2,.35,.37,.62,.4,1.44,.2,2.65,.92,3.77,1.77,.39,.3,.65,.27,1.04,.05,1.67-.98,3.36-1.93,5.13-2.94m7.33,29.21V26.36c-.2,.07-.31,.09-.4,.14-3.61,1.94-7.17,3.99-10.73,6.02-.42,.24-.5,.57-.44,.98,.12,.71,.14,1.43,.09,2.14-.04,.62,.19,1.01,.68,1.39,1.89,1.44,2.84,3.35,2.63,5.76-.02,.22,.03,.4,.13,.59,1.26,2.3,1.51,4.71,1.04,7.28-.68,3.7-3.34,6.19-7.04,6.39-.41,.02-.57,.23-.69,.55-.13,.36,.18,.43,.38,.55,3.47,1.96,6.94,3.92,10.41,5.88,1.28,.72,2.55,1.44,3.87,2.18,.15-2.96,.02-5.84,.05-8.85m-58.82-11.99c.2-.76,.39-1.53,.91-2.15,.34-.4,.45-.81,.44-1.33-.02-1.81,.47-3.55,1.9-4.64,1.19-.9,1.4-1.9,1.27-3.18-.03-.25-.03-.51,0-.76,.06-.49-.17-.75-.58-.98-2.87-1.61-5.73-3.25-8.61-4.86-.69-.39-1.35-.86-2.21-1.11v39.72c.25-.12,.47-.22,.69-.34,4.46-2.55,8.92-5.11,13.39-7.64,.52-.29,.62-.54,.33-1.07-.22-.4-.51-.4-.86-.38-2.23,.09-3.91-.95-5.18-2.67-1.89-2.56-2.15-5.46-1.49-8.61m6.23,2.42c-.48-.27-.97-.54-1.44-.83-.66-.4-.86-.88-.58-1.42,.27-.53,.81-.65,1.49-.29,.43,.22,.83,.5,1.25,.75,3.51,2.07,7.03,4.14,10.54,6.22,.35,.21,.54,.1,.78-.13,.82-.81,1.64-1.62,2.45-2.44,.98-.99,1.14-1,2.36-.32,.59,.33,1.14,.74,1.9,.96,0-.39-.03-.69,0-.98,.09-.66-.13-1.08-.75-1.38-.89-.43-1.73-.97-2.61-1.42-.65-.34-.94-.84-.92-1.56,.02-.81,.02-1.61,.02-2.42,0-.25,.03-.55-.2-.7-.53-.35-1.05-.73-1.81-.92,0,.98,0,1.89,0,2.81,0,1.1-.5,1.38-1.43,.84-2.19-1.27-4.39-2.55-6.59-3.8-1.44-.82-2.91-1.61-4.35-2.42-.63-.36-1.13-.28-1.65,.26-.96,1.01-1.41,2.19-1.35,3.58,.02,.48,.04,.93-.26,1.39-1.94,2.99-1.94,6.04-.04,9.02,.96,1.51,2.37,2.37,4.27,2.06,.26-.04,.58,.02,.65-.37,.06-.38,.18-.74-.22-1.07-.67-.55-.76-1.03-.38-1.53,.47-.61,.97-.3,1.47-.05,.06,.03,.12,.07,.18,.1,4.98,2.8,9.96,5.61,14.95,8.4,.31,.17,.59,.41,1.02,.43,0-1.1,.03-2.17-.01-3.22-.03-.62,.2-1,.73-1.27,1.01-.51,2.01-1.04,3.01-1.56,.22-.12,.51-.22,.52-.51,.04-.81,.11-1.63-.09-2.5-.88,.44-1.69,.82-2.47,1.26-.62,.35-1.16,.3-1.74-.08-.71-.47-1.47-.87-2.18-1.33-.44-.29-.77-.25-1.14,.14-.9,.93-1.85,1.8-2.76,2.72-.48,.48-.93,.54-1.53,.15-1.18-.76-2.4-1.46-3.62-2.17-2.46-1.45-4.93-2.9-7.48-4.4m33.8-8.53c1.62-.88,3.25-1.75,4.87-2.63,.26-.14,.56-.27,.56-.64,0-.57,.07-1.15-.09-1.76-1.07,.38-1.97,.98-2.91,1.49-2.43,1.32-4.85,2.66-7.28,3.98-.39,.21-.56,.48-.55,.93,.02,1.64,.17,3.27,.04,4.91-.02,.25,.08,.52,.13,.8,.42-.18,.75-.33,1.09-.47,.48-.2,.92-.18,1.19,.33,.28,.5,.11,1.05-.42,1.36-.5,.29-1.02,.53-1.53,.8-.31,.16-.49,.41-.49,.77,0,2.25,0,4.5,0,6.77,.43,0,.64-.2,.88-.33,2.52-1.36,5.03-2.72,7.54-4.07,.35-.19,.74-.36,1.1-.07,.34,.28,.47,.71,.39,1.13-.12,.62-.08,1.24-.08,1.86,0,.74,.14,.84,.86,.7,2.05-.38,3.38-1.65,4.13-3.51,1.01-2.49,.83-4.95-.52-7.31-.19-.33-.44-.61-.35-1.07,.37-2-.37-3.55-2-4.73-.35-.25-.63-.27-1-.06-1.59,.88-3.2,1.73-4.81,2.59-1.02,.54-2.03,1.09-3.05,1.62-.39,.2-.8,.25-1.12-.15-.35-.45-.33-.9,.04-1.32,.15-.17,.35-.29,.55-.4,.91-.5,1.82-.99,2.83-1.52m-2.19-7.32c.8-.48,1.67-.86,2.48-1.47-1.45-1.08-2.95-1.93-4.54-2.6-.98-.42-1.9-.93-2.74-1.59-.85-.67-1.73-1.34-2.83-1.53-.81-.15-1.64-.23-2.5,.25,1.16,.8,2.28,1.38,3.39,2,1.07,.59,1.07,1.28,.02,1.87-.82,.46-1.66,.9-2.5,1.33-1.65,.85-3.31,1.69-5.08,2.6,.65,.38,1.2,.66,1.7,1.01,.34,.23,.6,.22,.94,.03,1.48-.81,2.96-1.6,4.45-2.39,1.46-.78,2.93-1.57,4.41-2.31,.56-.28,1.15-.06,1.41,.47,.3,.59-.08,.91-.52,1.16-.68,.39-1.38,.75-2.07,1.12-3.87,2.09-7.75,4.18-11.62,6.27-.45,.24-.85,.26-1.3,.02-2.59-1.42-5.18-2.82-7.77-4.23-.34-.19-.71-.33-1.03-.55-.82-.56-.77-1.25,.11-1.7,.41-.21,.83-.41,1.23-.63,2.31-1.25,4.62-2.5,6.92-3.77,.66-.36,1.25-.44,1.94-.01,1.07,.67,2.19,1.27,3.3,1.9,.17,.1,.34,.27,.57,.15,.83-.43,1.71-.76,2.61-1.42-1.69-.77-3-1.92-4.52-2.72-.48-.25-1.03-.35-1.6-.39-1.75-.12-3.1,.75-4.38,1.75-.66,.52-1.35,.95-2.14,1.24-1.48,.54-2.85,1.28-4.11,2.25-.75,.58-1.6,1-2.45,1.41-.61,.29-1.21,.62-1.78,1.09,.15,.1,.23,.17,.33,.22,4.34,2.4,8.68,4.78,13,7.21,.66,.37,1.16,.41,1.83,.04,4.91-2.69,9.85-5.34,14.86-8.05m-1.24,25.23c-.67,.36-1.34,.73-2,1.09-1.13,.61-1.71,.26-1.72-1.01,0-2.24,0-4.47,0-6.71,0-.24,.09-.51-.13-.75-.4,.05-.68,.37-1.05,.48-.54,.16-.68,.51-.67,1.05,.03,1.11-.02,2.22,.02,3.32,.02,.57-.21,.91-.69,1.15-1.02,.53-2.04,1.07-3.05,1.62-.22,.12-.52,.22-.53,.5-.03,.76-.01,1.53-.01,2.39,.76-.41,1.38-.76,2.02-1.07,.71-.34,1.16-.22,1.43,.3,.25,.49,.05,1.01-.57,1.37-.64,.37-1.29,.72-1.96,1.02-.71,.32-1.07,.79-.96,1.61,.07,.52,.01,1.06,.01,1.59,0,1.08,.56,1.42,1.49,.85,.65-.4,1.3-.64,2.07-.57,.63,.06,1.08-.32,1.45-.79,.53-.67,.65-1.47,.69-2.27,.02-.48,.18-.75,.66-.9,.89-.26,1.7-.7,2.4-1.33,.3-.27,.64-.41,1.07-.33,2.48,.43,5.06-1.15,5.74-3.58,.18-.63,.39-1.31,.1-2.06-2.02,.87-3.83,2.02-5.83,3.03m-17.16,2.62c-3.14-1.75-6.29-3.5-9.5-5.29-.11,.62-.16,1.06,.13,1.48,.85,1.26,1.96,2.13,3.49,2.39,.6,.1,1.14,.32,1.65,.65,1.07,.69,2.15,1.35,3.23,2.01,.34,.21,.53,.5,.56,.9,.04,.51,.09,1.01,.14,1.51,.24,2.16,2.03,4.07,4.17,4.43,.53,.09,1.04,.02,1.47-.36-.38-.72-.97-1.14-1.63-1.49-.67-.35-1.38-.66-1.92-1.21-.35-.36-.5-.78-.16-1.24,.34-.45,.76-.46,1.22-.2,.24,.14,.48,.27,.72,.41,.61,.35,1.19,.77,1.98,1.05,0-.53-.02-.98,0-1.43,.02-.4-.16-.62-.5-.81-1.66-.9-3.31-1.83-5.05-2.79m-4.12-26.87c1.92,1.05,3.84,2.1,5.76,3.16,.22,.12,.43,.26,.71,.12,.63-.33,1.27-.61,1.93-1.1-.33-.2-.59-.37-.87-.53-.73-.44-1.46-.87-2.2-1.3-.5-.29-.64-.74-.45-1.24,.18-.47,.61-.75,1.1-.65,1.02,.2,1.62-.53,2.45-.92-.71-.65-1.49-.95-2.2-1.37-.21-.13-.39,0-.58,.1-1.72,.93-3.45,1.86-5.17,2.79-.31,.17-.65,.33-.87,.67,.13,.09,.22,.15,.39,.26m21.18,2.48c-.29-.26-.55-.3-.93-.1-3.25,1.78-6.52,3.52-9.78,5.29-.51,.28-1.06,.52-1.5,.96,.94,.71,1.76,1.07,2.94,.36,2.5-1.5,5.11-2.83,7.68-4.24,.86-.47,1.72-.95,2.6-1.43-.24-.43-.66-.52-1.01-.85m-26.83,2.57c2.29,1.3,4.58,2.6,6.96,3.95,.07-.54,.11-.94,.17-1.34,.08-.5-.09-.83-.54-1.08-3.05-1.67-6.09-3.36-9.14-5.04-.15-.08-.3-.23-.5-.15-.44,1.34-.3,1.9,.85,2.42,.73,.33,1.41,.78,2.2,1.23m23.2,7.35v-4.25c-.52,.07-.78,.38-1.13,.48-.59,.18-.75,.56-.73,1.15,.04,.99,0,1.98,.01,2.96,.01,.88-.08,1.78,.12,2.66,1.15-.41,1.72-1.19,1.72-2.32v-.69m8.15-11.01c.96-.56,2.01-.97,2.88-1.7-.21-.37-.57-.41-.82-.6-.5-.39-.96-.38-1.48,0-.44,.32-.96,.55-1.44,.82-.71,.4-1.41,.79-2.15,1.21,1.29,1.18,1.32,1.19,2.74,.43,.06-.03,.12-.06,.27-.14m-11.87,12.75c-.79,.21-1.43,.72-2.15,1.07-.15,.07-.25,.21-.25,.39,0,.66-.07,1.32,.06,2.06,.77-.4,1.47-.77,2.18-1.15,.23-.12,.27-.35,.26-.6-.02-.57-.04-1.15-.1-1.78m-.79-3.66c-.2,.11-.41,.21-.61,.32-1.11,.6-1.24,.92-.87,2.32,.73-.37,1.44-.73,2.14-1.1,.18-.1,.24-.27,.24-.47-.01-.45-.02-.91-.19-1.32-.28-.04-.44,.12-.71,.24m-4.89,1.95c.41,.24,.8,.52,1.32,.68,.15-.75,.42-1.5-.22-2.02-.52-.42-1.2-.63-1.82-.94-.42,1.14-.24,1.74,.71,2.29h0Z"/>
          <path class="cls-13" d="M367.99,6.62c1.95,.56,2.83,2.19,2.16,3.89-.49,1.22-1.83,1.92-3.24,1.68-1.15-.2-2.19-1.41-2.21-2.59-.03-1.52,.76-2.58,2.15-2.89,.36-.08,.71-.19,1.15-.09m.08,3.52c.51-.32,.64-.74,.24-1.21-.32-.37-.74-.67-1.27-.34-.45,.28-.61,.86-.31,1.26,.31,.43,.7,.77,1.35,.28h0Z"/>
          <path class="cls-13" d="M437.48,44.3c.32,.1,.45,.31,.55,.56,.22,.56-.02,1.04-.57,1.19-.47,.13-1.03-.24-1.14-.75-.11-.48,.24-.96,.77-1.03,.11-.02,.23,.01,.4,.03h0Z"/>
          <path class="cls-13" d="M376.44,4.04c-.06,.78-.42,1.17-.97,1.08-.57-.1-.71-.51-.66-1.03,.03-.37,.26-.6,.59-.67,.48-.1,.85,.08,1.05,.62h0Z"/>
          <path class="cls-13" d="M421.66,4.82c.24,.49,.12,.86-.25,1.14-.28,.2-.61,.22-.9,0-.33-.25-.41-.6-.31-.98,.17-.67,.8-.76,1.46-.16h0Z"/>
          <path class="cls-13" d="M385.68,4.02c-.61-.33-.81-.86-.52-1.3,.28-.43,.68-.55,1.12-.24,.45,.32,.49,.74,.23,1.21-.17,.31-.46,.35-.83,.33h0Z"/>
          <path class="cls-13" d="M415.89,7.87c.89-.06,1.39,.4,1.16,.99-.12,.32-.35,.54-.72,.56-.34,.02-.6-.12-.73-.42-.18-.41-.18-.81,.29-1.13h0Z"/>
          <path class="cls-13" d="M403.73,.73c.19-.57,.56-.69,1.04-.51,.41,.15,.52,.49,.43,.89-.09,.45-.42,.69-.84,.63-.51-.07-.71-.45-.63-1.01h0Z"/>
          <path class="cls-13" d="M422.83,80.73c-.38-.71-.23-1.23,.34-1.32,.4-.06,.73,.07,.92,.44,.15,.29,.09,.59-.12,.82-.33,.36-.7,.37-1.14,.06h0Z"/>
          <path class="cls-13" d="M372.05,85.02c-.3,.53-.71,.56-1.13,.3-.33-.2-.42-.53-.29-.9,.17-.47,.56-.54,.95-.43,.47,.13,.59,.52,.47,1.03h0Z"/>
          <path class="cls-13" d="M413.3,86.37c-.3,0-.52-.07-.66-.26-.26-.37-.32-.77,.04-1.11,.31-.29,.68-.28,.99,0,.35,.32,.36,.72,.08,1.1-.09,.12-.26,.17-.45,.27h0Z"/>
          <path class="cls-13" d="M366.17,77.71c.41,0,.62,.18,.64,.53,.01,.25-.13,.45-.38,.52-.25,.07-.48-.02-.58-.25-.15-.33-.13-.63,.32-.8h0Z"/>
          <path class="cls-13" d="M390.97,.95c-.03,.42-.24,.59-.6,.53-.24-.04-.4-.24-.41-.49,0-.24,.08-.47,.36-.51,.33-.05,.6,.03,.65,.47h0Z"/>
          <path class="cls-13" d="M413.29,1.65c-.44,.03-.58-.19-.58-.54,0-.25,.11-.44,.38-.48,.25-.03,.46,.04,.56,.29,.13,.33,0,.57-.36,.73h0Z"/>
          <path class="cls-13" d="M425.29,9.63c-.42,.07-.6-.12-.63-.47-.02-.23,.12-.39,.33-.46,.22-.07,.41,.02,.53,.21,.19,.28,.09,.52-.23,.71h0Z"/>
          <path class="cls-13" d="M409.74,65.99c.95-.44,1.8-.28,2.25,.39,.43,.63,.35,1.59-.17,2.1-.65,.63-1.69,.65-2.3,.02-.71-.72-.64-1.72,.22-2.51h0Z"/>
          <path class="cls-13" d="M405.19,72.69c.48-.31,.88-.27,1.21,.12,.25,.3,.23,.63,.02,.96-.22,.34-.54,.41-.9,.32-.54-.14-.67-.62-.33-1.4h0Z"/>
          <path class="cls-13" d="M381.9,22.85c-1.41,.12-2.09-.38-2.11-1.49-.01-.83,.41-1.43,1.12-1.6,.82-.2,1.59,.13,1.93,.83,.37,.77,.2,1.51-.47,2.03-.12,.1-.28,.15-.48,.23h0Z"/>
          <path class="cls-13" d="M410.44,22.98c-.67-.12-1.19-.39-1.41-1.02-.34-.97,.08-1.9,.97-2.18,.87-.28,1.82,.16,2.1,.95,.32,.92-.16,1.84-1.14,2.16-.15,.05-.31,.06-.52,.09h0Z"/>
          <path class="cls-13" d="M423.94,42.43c-.64-.01-.97-.29-.87-.9,.09-.55,.47-.71,.97-.58,.32,.08,.51,.31,.53,.65,.03,.43-.18,.7-.64,.84h0Z"/>
          <path class="cls-13" d="M368.37,59.05c-.6-.2-.74-.61-.56-1.1,.13-.38,.48-.48,.85-.4,.38,.09,.58,.35,.56,.75-.02,.5-.32,.73-.85,.75h0Z"/>
          <path class="cls-13" d="M377.74,42.92c-.38,.69-.91,.97-1.63,.8-.61-.14-.9-.58-.94-1.2-.06-.79,.41-1.34,1.24-1.43,.65-.07,1.3,.47,1.38,1.16,.02,.2-.02,.41-.05,.67h0Z"/>
          <path class="cls-13" d="M387.16,49.19c-.65-.31-.87-.81-.81-1.43,.05-.53,.37-.86,.88-1.04,.53-.18,.96-.04,1.32,.33,.43,.43,.56,.98,.24,1.52-.34,.58-.87,.88-1.63,.63h0Z"/>
          <path class="cls-13" d="M374.26,51.26c-.64-.68-.72-1.29-.29-1.89,.33-.46,.95-.57,1.56-.29,.66,.3,.92,.93,.66,1.6-.24,.63-.84,.93-1.5,.76-.13-.03-.26-.1-.43-.18h0Z"/>
          <path class="cls-13" d="M410.6,50.69c-.7,.36-1.35,.71-2.01,1.03-.75,.36-1.24,.23-1.54-.35-.27-.53-.07-1,.65-1.37,1.72-.88,3.45-1.73,5.18-2.61,.6-.3,1.17-.65,1.77-.93,.5-.23,1.04-.35,1.39,.26,.3,.51,.1,1.1-.54,1.44-1.6,.86-3.23,1.67-4.89,2.53h0Z"/>
          <path class="cls-13" d="M411.13,45.98c-.89-.17-1.24-.67-1.15-1.54,.07-.68,.68-1.19,1.39-1.18,.66,.01,1.23,.54,1.31,1.2,.08,.7-.41,1.36-1.14,1.5-.11,.02-.23,0-.4,.01h0Z"/>
          <path class="cls-13" d="M416.22,41.26c.91,.2,1.34,.69,1.29,1.4-.04,.62-.58,1.18-1.2,1.24-.69,.07-1.28-.34-1.45-1.01-.21-.84,.27-1.45,1.35-1.63h0Z"/>
          <path class="cls-13" d="M417.28,49.1c.7,.23,1.07,.68,1.01,1.36-.06,.57-.34,1.05-.97,1.2-.81,.19-1.52-.25-1.65-1.03-.12-.74,.44-1.46,1.22-1.55,.11-.01,.23,0,.4,.02h0Z"/>
          <path class="cls-13" d="M375.96,66.1c-.38,.69-.91,.97-1.63,.8-.61-.14-.9-.58-.94-1.2-.06-.79,.41-1.34,1.24-1.43,.65-.07,1.3,.47,1.38,1.16,.02,.2-.02,.41-.05,.67h0Z"/>
          <path class="cls-13" d="M382.73,45.97c-.38,.69-.91,.97-1.63,.8-.61-.14-.9-.58-.94-1.2-.06-.79,.41-1.34,1.24-1.43,.65-.07,1.3,.47,1.38,1.16,.02,.2-.02,.41-.05,.67h0Z"/>
          <path class="cls-13" d="M437.48,40.01c.32,.1,.45,.31,.55,.56,.22,.56-.02,1.04-.57,1.19-.47,.13-1.03-.24-1.14-.75-.11-.48,.24-.96,.77-1.03,.11-.02,.23,.01,.4,.03h0Z"/>
          <path class="cls-13" d="M437.48,35.86c.32,.1,.45,.31,.55,.56,.22,.56-.02,1.04-.57,1.19-.47,.13-1.03-.24-1.14-.75-.11-.48,.24-.96,.77-1.03,.11-.02,.23,.01,.4,.03h0Z"/>
          <path class="cls-13" d="M437.48,31.29c.32,.1,.45,.31,.55,.56,.22,.56-.02,1.04-.57,1.19-.47,.13-1.03-.24-1.14-.75-.11-.48,.24-.96,.77-1.03,.11-.02,.23,.01,.4,.03h0Z"/>
          <path class="cls-13" d="M356.8,48.66c.32,.1,.45,.31,.55,.56,.22,.56-.02,1.04-.57,1.19-.47,.13-1.03-.24-1.14-.75-.11-.48,.24-.96,.77-1.03,.11-.02,.23,.01,.4,.03h0Z"/>
          <path class="cls-13" d="M356.8,44.36c.32,.1,.45,.31,.55,.56,.22,.56-.02,1.04-.57,1.19-.47,.13-1.03-.24-1.14-.75-.11-.48,.24-.96,.77-1.03,.11-.02,.23,.01,.4,.03h0Z"/>
          <path class="cls-13" d="M356.8,40.21c.32,.1,.45,.31,.55,.56,.22,.56-.02,1.04-.57,1.19-.47,.13-1.03-.24-1.14-.75-.11-.48,.24-.96,.77-1.03,.11-.02,.23,.01,.4,.03h0Z"/>
          <path class="cls-13" d="M356.8,35.64c.32,.1,.45,.31,.55,.56,.22,.56-.02,1.04-.57,1.19-.47,.13-1.03-.24-1.14-.75-.11-.48,.24-.96,.77-1.03,.11-.02,.23,.01,.4,.03h0Z"/>
          <path class="cls-13" d="M392.59,56.01c-.6-.2-.73-.61-.56-1.1,.13-.38,.48-.48,.85-.4,.38,.09,.58,.35,.56,.75-.02,.5-.32,.73-.85,.75h0Z"/>
          <path class="cls-13" d="M383.01,67.48c-.38,.69-.91,.97-1.63,.8-.61-.14-.9-.58-.94-1.2-.06-.79,.41-1.34,1.24-1.43,.65-.07,1.3,.47,1.38,1.16,.02,.2-.02,.41-.05,.67h0Z"/>
        </g>
      </g>
      <g id="text-5" data-name="text">
        <text class="cls-14" transform="translate(406.95 100.69)"><tspan class="cls-31" x="0" y="0">B</tspan><tspan x="9.01" y="0">ox</tspan></text>
        <text class="cls-14" transform="translate(402.39 100.69)"><tspan x="0" y="0">-</tspan></text>
        <text class="cls-14" transform="translate(395.43 100.69)"><tspan x="0" y="0">a</tspan></text>
        <text class="cls-14" transform="translate(390.87 100.69)"><tspan x="0" y="0">-</tspan></text>
        <text class="cls-14" transform="translate(379.71 100.69)"><tspan x="0" y="0">in</tspan></text>
        <text class="cls-14" transform="translate(375.15 100.69)"><tspan x="0" y="0">-</tspan></text>
        <text class="cls-15" transform="translate(362.66 100.69)"><tspan class="cls-46" x="0" y="0">A</tspan><tspan x="8.77" y="0">I</tspan></text>
      </g>
      <g id="arrows">
        <path class="cls-1" d="M346.6,81.6c-134.52,0-269.03,13.4-269.03,26.8,0,8.35,.14,16.7,.34,21.8"/>
        <polygon class="cls-49" points="74.82 129.44 78.26 135.2 80.8 128.99 74.82 129.44 74.82 129.44"/>
        <path class="cls-1" d="M346.33,93.6c-28.18,0-56.37,12.22-56.37,24.44,0,7.37,0,14.74,0,19.42"/>
        <polygon class="cls-49" points="286.96 136.47 289.94 142.47 292.96 136.48 286.96 136.47 286.96 136.47"/>
        <polygon class="cls-49" points="714.81 129 712.25 135.19 708.83 129.42 714.81 129 714.81 129"/>
        <path class="cls-1" d="M443.6,81.6c134.05,0,268.1,14.19,268.1,28.38,0,7.65,.08,15.3,.19,20.72"/>
        <polygon class="cls-49" points="507.86 136.38 505.19 142.53 501.87 136.7 507.86 136.38 507.86 136.38"/>
        <path class="cls-1" d="M445.34,96.36c29.54,0,59.07,11.54,59.07,23.09,0,6.82,.08,13.64,.19,18.08"/>
      </g>
    </g>
  </g>
</svg>