<?xml version="1.0" encoding="UTF-8"?>
<svg id="Layer_2" data-name="Layer 2" xmlns="http://www.w3.org/2000/svg" viewBox="0 0 558.93 722.01">
  <defs>
    <style>
      .cls-1, .cls-2 {
        font-family: Montserrat-Medium, Montserrat;
        font-weight: 500;
      }

      .cls-2 {
        letter-spacing: 0em;
      }

      .cls-3 {
        letter-spacing: -.02em;
      }

      .cls-3, .cls-4 {
        font-family: Montserrat-Light, Montserrat;
        font-weight: 300;
      }

      .cls-5 {
        fill: #2d4d63;
      }

      .cls-6 {
        fill: #2b4e64;
        font-size: 72px;
      }
    </style>
  </defs>
  <g id="AIInABox">
    <g id="AI-in-a-Box_Green" data-name="AI-in-a-Box Green">
      <g id="Box">
        <g id="dots">
          <path class="cls-5" d="M73.4,46.8c14.09,4.05,20.48,15.81,15.58,28.06-3.53,8.82-13.22,13.84-23.39,12.11-8.32-1.42-15.81-10.18-15.97-18.68-.2-10.96,5.46-18.61,15.5-20.86,2.59-.58,5.16-1.4,8.28-.63m.58,25.44c3.65-2.3,4.62-5.36,1.72-8.71-2.34-2.7-5.32-4.82-9.17-2.44-3.23,1.99-4.38,6.18-2.27,9.1,2.27,3.14,5.05,5.56,9.72,2.05Z"/>
          <path class="cls-5" d="M554.41,318.96c2.29,.75,3.28,2.27,3.95,4.02,1.56,4.06-.12,7.54-4.11,8.62-3.4,.92-7.41-1.73-8.24-5.44-.77-3.49,1.73-6.9,5.53-7.42,.81-.11,1.65,.08,2.87,.23Z"/>
          <path class="cls-5" d="M134.47,28.17c-.46,5.65-3.07,8.46-7.04,7.77-4.15-.71-5.11-3.69-4.79-7.41,.23-2.68,1.86-4.34,4.29-4.85,3.5-.74,6.17,.58,7.55,4.48Z"/>
          <path class="cls-5" d="M461.17,33.78c1.71,3.53,.9,6.22-1.81,8.2-2.02,1.48-4.39,1.61-6.49,.05-2.39-1.77-2.96-4.34-2.27-7.1,1.21-4.87,5.76-5.5,10.56-1.16Z"/>
          <path class="cls-5" d="M201.18,28.05c-4.41-2.39-5.88-6.18-3.78-9.37,2.04-3.08,4.9-3.95,8.09-1.71,3.26,2.3,3.52,5.37,1.67,8.73-1.23,2.22-3.29,2.56-5.98,2.35Z"/>
          <path class="cls-5" d="M419.44,55.81c6.41-.46,10.07,2.86,8.37,7.17-.9,2.29-2.55,3.88-5.21,4.06-2.44,.16-4.31-.88-5.25-3.05-1.29-2.97-1.28-5.85,2.09-8.18Z"/>
          <path class="cls-5" d="M331.58,4.25c1.37-4.1,4.04-5,7.5-3.69,2.94,1.11,3.74,3.53,3.13,6.44-.68,3.23-3,4.98-6.05,4.54-3.66-.53-5.1-3.26-4.58-7.28Z"/>
          <path class="cls-5" d="M469.58,582.08c-2.74-5.14-1.65-8.9,2.48-9.53,2.88-.44,5.24,.53,6.62,3.18,1.1,2.12,.66,4.23-.89,5.95-2.37,2.61-5.09,2.67-8.21,.4Z"/>
          <path class="cls-5" d="M120.74,594.08c-2.2,3.8-5.13,4.03-8.18,2.18-2.35-1.43-3-3.82-2.06-6.5,1.2-3.4,4.03-3.9,6.87-3.1,3.43,.96,4.25,3.76,3.37,7.42Z"/>
          <path class="cls-5" d="M400.78,622.83c-2.14,.07-3.76-.5-4.75-1.89-1.91-2.67-2.32-5.57,.27-8.02,2.22-2.1,4.93-2.05,7.14,0,2.52,2.33,2.63,5.23,.57,7.97-.64,.85-1.87,1.26-3.23,1.95Z"/>
          <path class="cls-5" d="M60.28,560.23c2.96-.07,4.46,1.28,4.59,3.82,.1,1.83-.92,3.23-2.72,3.73-1.8,.51-3.46-.13-4.22-1.81-1.07-2.36-.94-4.58,2.34-5.75Z"/>
          <path class="cls-5" d="M239.44,5.85c-.23,3.02-1.76,4.27-4.32,3.8-1.76-.32-2.89-1.73-2.97-3.54-.07-1.74,.59-3.36,2.59-3.66,2.37-.36,4.32,.19,4.69,3.4Z"/>
          <path class="cls-5" d="M400.7,10.94c-3.19,.2-4.19-1.4-4.18-3.9,0-1.84,.76-3.2,2.74-3.46,1.78-.23,3.31,.29,4.02,2.07,.95,2.39,.03,4.11-2.58,5.29Z"/>
          <path class="cls-5" d="M487.4,68.52c-3.06,.54-4.37-.86-4.57-3.37-.14-1.67,.85-2.8,2.4-3.29,1.62-.51,2.96,.18,3.82,1.5,1.34,2.05,.62,3.72-1.65,5.16Z"/>
          <path class="cls-5" d="M375.06,475.61c6.85-3.2,12.97-2.04,16.27,2.82,3.12,4.58,2.55,11.46-1.26,15.15-4.72,4.58-12.18,4.66-16.59,.17-5.12-5.21-4.62-12.45,1.58-18.14Z"/>
          <path class="cls-5" d="M342.12,523.99c3.44-2.21,6.36-1.94,8.74,.88,1.82,2.15,1.65,4.57,.15,6.91-1.58,2.45-3.89,2.99-6.51,2.3-3.92-1.03-4.83-4.51-2.38-10.09Z"/>
          <path class="cls-5" d="M173.87,164c-10.16,.84-15.11-2.76-15.24-10.74-.1-5.98,2.93-10.3,8.12-11.58,5.93-1.46,11.49,.93,13.92,5.98,2.67,5.53,1.47,10.89-3.37,14.65-.9,.7-2.03,1.09-3.44,1.69Z"/>
          <path class="cls-5" d="M380.11,164.96c-4.87-.9-8.61-2.8-10.21-7.39-2.46-7.02,.58-13.73,7.04-15.77,6.3-1.99,13.17,1.12,15.19,6.88,2.31,6.61-1.17,13.27-8.22,15.63-1.08,.36-2.25,.46-3.79,.65Z"/>
          <path class="cls-5" d="M477.62,305.46c-4.59-.09-7.01-2.08-6.29-6.52,.64-3.96,3.4-5.11,7.04-4.21,2.32,.58,3.67,2.26,3.84,4.67,.22,3.09-1.28,5.04-4.59,6.05Z"/>
          <path class="cls-5" d="M76.15,425.51c-4.31-1.45-5.31-4.38-4.07-7.98,.95-2.75,3.45-3.48,6.13-2.87,2.76,.63,4.22,2.53,4.08,5.42-.17,3.62-2.31,5.28-6.15,5.42Z"/>
          <path class="cls-5" d="M143.86,309.01c-2.72,4.97-6.6,7.01-11.75,5.8-4.4-1.04-6.5-4.2-6.82-8.66-.41-5.73,2.97-9.68,8.96-10.34,4.7-.52,9.39,3.36,9.95,8.38,.16,1.45-.11,2.96-.34,4.82Z"/>
          <path class="cls-5" d="M211.87,354.26c-4.69-2.21-6.29-5.87-5.88-10.36,.34-3.83,2.64-6.22,6.34-7.51,3.8-1.32,6.95-.28,9.54,2.36,3.08,3.14,4.04,7.07,1.76,10.95-2.48,4.22-6.27,6.34-11.76,4.56Z"/>
          <path class="cls-5" d="M118.72,369.2c-4.61-4.94-5.18-9.31-2.08-13.64,2.36-3.29,6.85-4.14,11.25-2.11,4.76,2.2,6.62,6.71,4.77,11.57-1.72,4.53-6.06,6.75-10.85,5.5-.95-.25-1.85-.72-3.09-1.33Z"/>
          <path class="cls-5" d="M385.06,331.11c-6.41-1.26-8.97-4.87-8.3-11.12,.52-4.89,4.92-8.63,10.03-8.52,4.77,.1,8.87,3.88,9.43,8.69,.58,5.06-2.99,9.81-8.24,10.87-.8,.16-1.66,.07-2.92,.09Z"/>
          <path class="cls-5" d="M421.84,296.98c6.57,1.43,9.71,4.95,9.34,10.11-.32,4.49-4.19,8.5-8.66,8.96-4.98,.52-9.25-2.46-10.45-7.28-1.52-6.09,1.93-10.45,9.76-11.79Z"/>
          <path class="cls-5" d="M429.48,353.64c5.06,1.65,7.76,4.91,7.27,9.8-.41,4.14-2.47,7.59-7.04,8.66-5.87,1.38-11-1.83-11.94-7.46-.9-5.37,3.17-10.53,8.83-11.16,.82-.09,1.66,.05,2.89,.17Z"/>
          <path class="cls-5" d="M130.95,476.38c-2.72,4.97-6.6,7.01-11.75,5.8-4.4-1.04-6.5-4.2-6.82-8.66-.41-5.73,2.97-9.68,8.96-10.34,4.7-.52,9.39,3.36,9.95,8.38,.16,1.45-.11,2.96-.34,4.82Z"/>
          <path class="cls-5" d="M179.86,331.01c-2.72,4.97-6.6,7.01-11.75,5.8-4.4-1.04-6.5-4.2-6.82-8.66-.41-5.73,2.97-9.68,8.96-10.34,4.7-.52,9.39,3.36,9.95,8.38,.16,1.45-.11,2.96-.34,4.82Z"/>
          <path class="cls-5" d="M554.41,287.96c2.29,.75,3.28,2.27,3.95,4.02,1.56,4.06-.12,7.54-4.11,8.62-3.4,.92-7.41-1.73-8.24-5.44-.77-3.49,1.73-6.9,5.53-7.42,.81-.11,1.65,.08,2.87,.23Z"/>
          <path class="cls-5" d="M554.41,257.96c2.29,.75,3.28,2.27,3.95,4.02,1.56,4.06-.12,7.54-4.11,8.62-3.4,.92-7.41-1.73-8.24-5.44-.77-3.49,1.73-6.9,5.53-7.42,.81-.11,1.65,.08,2.87,.23Z"/>
          <path class="cls-5" d="M554.41,224.96c2.29,.75,3.28,2.27,3.95,4.02,1.56,4.06-.12,7.54-4.11,8.62-3.4,.92-7.41-1.73-8.24-5.44-.77-3.49,1.73-6.9,5.53-7.42,.81-.11,1.65,.08,2.87,.23Z"/>
          <path class="cls-5" d="M8.54,350.42c2.29,.75,3.28,2.27,3.95,4.02,1.56,4.06-.12,7.54-4.11,8.62-3.4,.92-7.41-1.73-8.24-5.44-.77-3.49,1.73-6.9,5.53-7.42,.81-.11,1.65,.08,2.87,.23Z"/>
          <path class="cls-5" d="M8.54,319.42c2.29,.75,3.28,2.27,3.95,4.02,1.56,4.06-.12,7.54-4.11,8.62-3.4,.92-7.41-1.73-8.24-5.44-.77-3.49,1.73-6.9,5.53-7.42,.81-.11,1.65,.08,2.87,.23Z"/>
          <path class="cls-5" d="M8.54,289.42c2.29,.75,3.28,2.27,3.95,4.02,1.56,4.06-.12,7.54-4.11,8.62-3.4,.92-7.41-1.73-8.24-5.44-.77-3.49,1.73-6.9,5.53-7.42,.81-.11,1.65,.08,2.87,.23Z"/>
          <path class="cls-5" d="M8.54,256.42c2.29,.75,3.28,2.27,3.95,4.02,1.56,4.06-.12,7.54-4.11,8.62-3.4,.92-7.41-1.73-8.24-5.44-.77-3.49,1.73-6.9,5.53-7.42,.81-.11,1.65,.08,2.87,.23Z"/>
          <path class="cls-5" d="M251.15,403.51c-4.31-1.45-5.31-4.38-4.07-7.98,.95-2.75,3.45-3.48,6.13-2.87,2.76,.63,4.22,2.53,4.08,5.42-.17,3.62-2.31,5.28-6.15,5.42Z"/>
          <path class="cls-5" d="M181.95,486.38c-2.72,4.97-6.6,7.01-11.75,5.8-4.4-1.04-6.5-4.2-6.82-8.66-.41-5.73,2.97-9.68,8.96-10.34,4.7-.52,9.39,3.36,9.95,8.38,.16,1.45-.11,2.96-.34,4.82Z"/>
        </g>
        <path class="cls-5" d="M381.27,365.13c-5.07,2.59-9.75,5.14-14.55,7.43-5.39,2.57-8.99,1.66-11.14-2.5-1.96-3.8-.54-7.21,4.69-9.9,12.42-6.38,24.94-12.53,37.4-18.83,4.3-2.17,8.43-4.69,12.8-6.71,3.62-1.68,7.49-2.52,10.04,1.87,2.14,3.7,.74,7.92-3.91,10.4-11.59,6.18-23.32,12.07-35.33,18.24Z"/>
        <path class="cls-5" d="M531.01,472.75c2.23,12.08-2.66,18.42-13.17,24.1-44.56,24.03-88.55,49.11-132.69,73.9-33.4,18.75-66.75,37.6-100.06,56.5-4.3,2.44-7.82,2.63-12.41,.02-55.17-31.34-110.46-62.48-165.77-93.58-24.24-13.63-48.56-27.14-72.95-40.49-4.68-2.56-6.63-5.84-6.63-11.14,.07-102.16,.06-204.32-.1-306.49,0-5.28,2.58-7.9,6.54-10.14,19.41-11.03,38.77-22.13,58.22-33.09,40.49-22.81,81.02-45.55,121.53-68.31,20.32-11.42,40.66-22.82,60.98-34.24,3.36-1.89,6.59-1.73,9.94,.17,35.77,20.31,71.53,40.64,107.35,60.85,28.86,16.28,57.84,32.36,86.73,48.61,15.24,8.57,30.32,17.42,45.59,25.93,5.07,2.83,7.06,6.45,7.05,12.43-.18,98.16-.13,196.32-.13,294.98m-372.07-46.04c-34.38,20.78-69.81,39.77-105.37,60.67,73.37,41.35,145.67,82.08,218.71,123.24,0-3.26,0-5.39,0-7.53,.02-31.31-.01-62.62,.11-93.93,.01-3.82-1.04-5.41-5.12-5.15-4.29,.28-8.64,.51-12.93-.46-21.53-4.85-37.01-23.66-38.83-47.59-.26-3.47-1.47-5.48-4.52-6.93-4.7-2.24-8.72-5.5-12.23-9.34-1.27-1.39-2.46-2.51-4.55-2.62-10.73-.61-20.43-4.3-29.3-10.25-1.82-1.22-3.41-2.07-5.96-.12m305.33,84.08c13.05-7.36,26.1-14.73,39.34-22.2-2.24-2.83-4.4-3.76-6.42-4.89-9.59-5.38-19.18-10.76-28.75-16.16-21.32-12.03-42.67-24.01-63.92-36.18-3.42-1.96-5.24-1.32-7.9,1.5-7.22,7.66-16.56,12.75-26.84,12.85-9.83,.09-18.07,2.31-25.84,8-2.12,1.56-3.59,2.76-4.23,5.54-2.75,11.96-8.59,22.04-20.91,25.95-8.71,2.76-18.04,3.46-26.64,6.89-.15,.06-.33,.03-.5,.03-4.68-.05-6.15,2.24-6.09,6.87,.25,20.33,.18,40.66,.21,60.99,.02,16.6,0,33.2,0,50.29,3.58-1.81,6.87-3.32,10.02-5.1,22.93-12.91,45.79-25.94,68.75-38.79,32.99-18.47,66.05-36.82,99.71-55.59M61.77,184.03c22.69,12.94,45.46,25.74,68,38.94,4.01,2.35,6.66,2.17,10.18-.47,7.4-5.55,15.6-9.55,24.83-11.08,1.65-.27,2.63-1.19,3.64-2.35,9.37-10.77,21.05-17.71,34.99-20.73,4.18-.91,7.4-2.78,10.52-5.9,11.9-11.88,26.11-18.86,43.34-17.94,4.57,.24,9.09,1.36,14.36,2.2V47.87c-75.69,41.93-150.63,84.19-226.24,127.1,5.89,3.26,10.81,5.99,16.37,9.06m401.97,19.23c15.91-9.06,31.82-18.12,47.73-27.18-.02-.61-.04-1.21-.06-1.82-74.85-42.03-149.69-84.06-225.24-126.48v117.54c.72,.1,1.04,.2,1.36,.19,.5-.02,1-.08,1.48-.19,22.4-5.4,40.61,1.42,55.01,19.03,1.65,2.02,3.63,2.64,5.97,3.09,14.84,2.81,27.7,9.21,37.52,20.99,1.22,1.46,2.52,2.65,4.47,2.91,10.42,1.41,19.12,6.66,27.25,12.79,2.85,2.14,4.72,1.98,7.48,.37,12.08-7.05,24.24-13.94,37.03-21.24m52.98,210.99V190.35c-1.41,.49-2.22,.65-2.92,1.03-26.11,14.01-51.79,28.79-77.52,43.49-3.04,1.74-3.64,4.12-3.15,7.11,.85,5.13,1.04,10.31,.68,15.44-.32,4.5,1.39,7.31,4.93,10.02,13.65,10.43,20.49,24.17,18.98,41.59-.14,1.62,.23,2.91,.96,4.25,9.08,16.59,10.94,34.04,7.51,52.6-4.93,26.71-24.15,44.7-50.85,46.18-2.96,.16-4.13,1.64-4.95,3.96-.91,2.57,1.29,3.14,2.77,3.98,25.07,14.17,50.16,28.3,75.24,42.43,9.23,5.2,18.45,10.39,27.97,15.75,1.06-21.4,.18-42.16,.36-63.92M91.8,327.66c1.45-5.49,2.85-11.07,6.57-15.5,2.43-2.89,3.25-5.88,3.21-9.58-.15-13.08,3.38-25.66,13.72-33.5,8.62-6.53,10.13-13.71,9.18-22.99-.19-1.81-.19-3.69,.03-5.49,.45-3.53-1.25-5.42-4.19-7.07-20.77-11.64-41.42-23.5-62.22-35.09-5-2.79-9.73-6.24-15.97-8.03V477.28c1.78-.88,3.43-1.6,4.99-2.49,32.24-18.42,64.43-36.92,96.74-55.2,3.76-2.13,4.49-3.88,2.36-7.71-1.6-2.88-3.7-2.89-6.23-2.78-16.12,.67-28.28-6.84-37.42-19.26-13.63-18.52-15.51-39.45-10.78-62.18m45.01,17.51c-3.47-1.98-6.98-3.91-10.4-5.97-4.8-2.88-6.18-6.39-4.19-10.28,1.96-3.84,5.83-4.68,10.8-2.08,3.09,1.62,5.98,3.61,9,5.39,25.38,14.97,50.8,29.88,76.12,44.95,2.52,1.5,3.93,.74,5.6-.92,5.9-5.88,11.86-11.7,17.73-17.61,7.09-7.14,8.21-7.25,17.08-2.32,4.25,2.37,8.25,5.36,13.72,6.91,0-2.8-.25-4.97,.05-7.06,.67-4.74-.91-7.77-5.39-9.94-6.44-3.11-12.5-6.99-18.85-10.28-4.69-2.43-6.8-6.04-6.65-11.26,.17-5.83,.16-11.66,.17-17.49,0-1.81,.25-3.95-1.46-5.08-3.82-2.53-7.57-5.28-13.11-6.62,0,7.09,.04,13.68,0,20.26-.05,7.93-3.62,9.98-10.36,6.08-15.85-9.18-31.68-18.4-47.59-27.48-10.42-5.94-20.99-11.6-31.44-17.48-4.58-2.57-8.19-2.03-11.93,1.91-6.96,7.32-10.17,15.8-9.77,25.82,.14,3.44,.3,6.7-1.86,10.02-14.02,21.57-14.04,43.59-.28,65.13,6.96,10.9,17.13,17.11,30.87,14.88,1.87-.3,4.22,.15,4.66-2.69,.44-2.76,1.3-5.34-1.56-7.71-4.83-4-5.48-7.46-2.75-11.05,3.38-4.43,7.02-2.2,10.64-.38,.45,.22,.86,.5,1.3,.75,36,20.24,71.99,40.49,108,60.7,2.21,1.24,4.28,2.97,7.38,3.14,0-7.98,.24-15.64-.09-23.28-.19-4.46,1.47-7.24,5.31-9.18,7.28-3.69,14.5-7.49,21.73-11.26,1.62-.84,3.68-1.59,3.79-3.65,.31-5.87,.82-11.8-.66-18.07-6.34,3.21-12.23,5.91-17.84,9.1-4.49,2.55-8.38,2.17-12.57-.58-5.15-3.38-10.59-6.3-15.77-9.63-3.2-2.06-5.54-1.79-8.27,1.02-6.49,6.69-13.35,13.03-19.95,19.62-3.47,3.46-6.73,3.89-11.05,1.11-8.54-5.49-17.37-10.52-26.12-15.68-17.79-10.48-35.6-20.92-54.03-31.76m244.19-61.64c11.73-6.32,23.46-12.62,35.17-18.97,1.88-1.02,4.05-1.96,4.07-4.59,.03-4.12,.5-8.27-.66-12.7-7.7,2.72-14.2,7.1-21.02,10.79-17.56,9.52-35.04,19.18-52.6,28.71-2.81,1.52-4.03,3.46-3.99,6.75,.14,11.81,1.21,23.62,.27,35.45-.15,1.84,.59,3.76,.95,5.8,3.01-1.32,5.42-2.41,7.86-3.43,3.47-1.45,6.62-1.28,8.61,2.35,2,3.64,.79,7.61-3.02,9.81-3.6,2.08-7.37,3.86-11.05,5.8-2.23,1.18-3.54,2.94-3.53,5.58,.02,16.26,0,32.52,0,48.88,3.1-.07,4.64-1.46,6.35-2.39,18.17-9.79,36.32-19.63,54.49-29.42,2.52-1.36,5.34-2.63,7.94-.51,2.47,2.02,3.37,5.1,2.79,8.14-.86,4.48-.57,8.96-.61,13.44-.04,5.31,1,6.05,6.2,5.08,14.78-2.77,24.45-11.92,29.87-25.32,7.28-18.01,5.97-35.77-3.73-52.78-1.35-2.37-3.17-4.42-2.55-7.75,2.7-14.48-2.67-25.66-14.46-34.15-2.53-1.82-4.55-1.92-7.25-.44-11.52,6.34-23.14,12.5-34.74,18.7-7.34,3.93-14.67,7.88-22.06,11.7-2.85,1.47-5.79,1.84-8.08-1.11-2.5-3.22-2.37-6.53,.32-9.53,1.08-1.2,2.56-2.12,4-2.91,6.57-3.6,13.18-7.12,20.44-11m-15.84-52.84c5.77-3.49,12.04-6.18,17.93-10.65-10.51-7.83-21.32-13.91-32.81-18.79-7.08-3.01-13.7-6.7-19.8-11.48-6.15-4.81-12.5-9.66-20.45-11.08-5.85-1.05-11.88-1.68-18.07,1.84,8.37,5.75,16.47,9.99,24.47,14.41,7.75,4.28,7.76,9.23,.15,13.52-5.94,3.35-12.02,6.48-18.08,9.61-11.93,6.15-23.89,12.24-36.67,18.78,4.68,2.75,8.66,4.8,12.31,7.31,2.43,1.67,4.34,1.56,6.81,.2,10.66-5.85,21.39-11.56,32.12-17.26,10.58-5.63,21.14-11.32,31.84-16.71,4.07-2.05,8.29-.4,10.19,3.38,2.16,4.28-.59,6.58-3.78,8.41-4.91,2.81-9.94,5.41-14.93,8.1-27.99,15.09-56,30.17-83.96,45.31-3.22,1.75-6.14,1.91-9.41,.11-18.68-10.24-37.42-20.39-56.14-30.56-2.48-1.35-5.16-2.41-7.47-4-5.89-4.05-5.53-9,.77-12.29,2.95-1.54,5.97-2.96,8.89-4.54,16.69-9.04,33.4-18.05,50.02-27.2,4.76-2.62,9.04-3.19,13.98-.09,7.74,4.87,15.84,9.18,23.81,13.69,1.25,.71,2.45,1.96,4.11,1.09,5.97-3.13,12.39-5.47,18.83-10.25-12.2-5.56-21.64-13.9-32.66-19.67-3.45-1.8-7.46-2.56-11.54-2.85-12.66-.89-22.37,5.41-31.66,12.64-4.78,3.72-9.73,6.88-15.45,8.98-10.68,3.92-20.61,9.21-29.67,16.23-5.39,4.18-11.55,7.25-17.73,10.19-4.44,2.11-8.76,4.45-12.87,7.84,1.05,.71,1.69,1.21,2.38,1.59,31.33,17.31,62.73,34.49,93.93,52.04,4.79,2.69,8.38,2.94,13.22,.29,35.5-19.41,71.14-38.54,107.39-58.12m-8.94,182.21c-4.83,2.62-9.65,5.25-14.48,7.86-8.15,4.39-12.38,1.91-12.4-7.3-.02-16.16,.02-32.31-.04-48.47,0-1.74,.64-3.66-.97-5.39-2.86,.36-4.89,2.69-7.55,3.46-3.9,1.13-4.92,3.7-4.81,7.55,.24,7.99-.14,16,.16,23.98,.15,4.11-1.5,6.55-4.95,8.33-7.39,3.82-14.74,7.73-22.07,11.67-1.59,.85-3.75,1.62-3.83,3.63-.23,5.52-.08,11.05-.08,17.24,5.52-2.93,9.98-5.52,14.62-7.71,5.12-2.42,8.41-1.56,10.32,2.2,1.78,3.51,.38,7.29-4.15,9.91-4.6,2.67-9.32,5.18-14.16,7.38-5.14,2.34-7.72,5.68-6.92,11.62,.51,3.76,.09,7.65,.1,11.48,0,7.81,4.03,10.29,10.79,6.17,4.71-2.88,9.38-4.65,14.99-4.14,4.57,.41,7.81-2.31,10.51-5.7,3.83-4.82,4.69-10.59,4.95-16.43,.16-3.46,1.28-5.45,4.8-6.48,6.46-1.87,12.28-5.09,17.36-9.58,2.2-1.94,4.59-2.95,7.76-2.4,17.89,3.14,36.52-8.34,41.47-25.87,1.28-4.55,2.79-9.49,.69-14.9-14.62,6.26-27.69,14.6-42.13,21.89m-124,18.9c-22.71-12.65-45.42-25.3-68.62-38.23-.77,4.47-1.12,7.66,.93,10.71,6.14,9.08,14.16,15.37,25.2,17.28,4.31,.75,8.25,2.34,11.95,4.72,7.7,4.95,15.52,9.72,23.31,14.53,2.44,1.51,3.8,3.59,4.02,6.49,.27,3.65,.64,7.29,1.04,10.92,1.73,15.62,14.69,29.42,30.13,31.98,3.81,.63,7.49,.16,10.61-2.62-2.77-5.17-7-8.2-11.81-10.73-4.85-2.55-9.98-4.77-13.88-8.76-2.51-2.57-3.64-5.66-1.13-8.97,2.46-3.24,5.5-3.33,8.84-1.45,1.74,.98,3.49,1.95,5.23,2.93,4.43,2.51,8.58,5.56,14.28,7.55,0-3.83-.13-7.1,.04-10.35,.16-2.91-1.14-4.5-3.63-5.86-12-6.52-23.91-13.2-36.51-20.16m-29.75-194.08c13.86,7.59,27.73,15.18,41.58,22.79,1.62,.89,3.12,1.9,5.1,.87,4.52-2.37,9.21-4.44,13.91-7.92-2.36-1.44-4.29-2.65-6.25-3.81-5.28-3.15-10.57-6.31-15.87-9.42-3.58-2.1-4.65-5.32-3.27-8.97,1.3-3.43,4.39-5.4,7.98-4.71,7.39,1.42,11.69-3.8,17.69-6.63-5.13-4.67-10.78-6.86-15.91-9.89-1.55-.92-2.82,.01-4.16,.74-12.44,6.74-24.9,13.42-37.33,20.18-2.27,1.23-4.67,2.4-6.26,4.87,.91,.64,1.58,1.11,2.81,1.91m153.04,17.9c-2.06-1.86-3.98-2.2-6.69-.72-23.5,12.82-47.1,25.45-70.63,38.21-3.7,2.01-7.65,3.74-10.85,6.91,6.8,5.15,12.75,7.72,21.24,2.62,18.09-10.86,36.94-20.46,55.47-30.59,6.22-3.4,12.43-6.83,18.75-10.3-1.74-3.09-4.76-3.78-7.3-6.13m-193.81,18.55c16.55,9.4,33.1,18.81,50.26,28.56,.48-3.87,.77-6.81,1.23-9.71,.57-3.58-.65-5.99-3.9-7.77-22.03-12.07-44-24.26-66.01-36.37-1.09-.6-2.15-1.67-3.62-1.08-3.17,9.69-2.17,13.74,6.14,17.51,5.29,2.4,10.19,5.63,15.9,8.85m167.64,53.08v-30.68c-3.76,.53-5.67,2.72-8.16,3.49-4.25,1.3-5.41,4.07-5.24,8.29,.29,7.13,0,14.27,.1,21.41,.09,6.39-.58,12.84,.86,19.23q12.44-4.48,12.44-16.77c0-1.33,0-2.66,0-4.98m58.88-79.51c6.93-4.06,14.54-7.03,20.78-12.3-1.52-2.69-4.11-2.97-5.9-4.36-3.64-2.83-6.94-2.75-10.72,0-3.2,2.34-6.92,3.96-10.41,5.91-5.11,2.86-10.21,5.74-15.51,8.71,9.29,8.55,9.52,8.58,19.77,3.07,.44-.24,.89-.46,1.98-1.04m-85.78,92.05c-5.69,1.54-10.31,5.22-15.53,7.71-1.09,.52-1.81,1.55-1.8,2.82,.02,4.75-.54,9.52,.46,14.89,5.53-2.9,10.65-5.54,15.72-8.27,1.66-.89,1.96-2.53,1.89-4.31-.17-4.14-.26-8.29-.75-12.84m-5.73-26.41c-1.48,.77-2.97,1.51-4.43,2.3-8.03,4.34-8.97,6.67-6.25,16.77,5.24-2.68,10.37-5.27,15.47-7.91,1.33-.69,1.76-1.95,1.72-3.36-.09-3.27-.12-6.55-1.35-9.51-2.01-.31-3.15,.84-5.16,1.71m-35.31,14.05c2.97,1.71,5.79,3.74,9.54,4.89,1.1-5.4,3.07-10.85-1.56-14.61-3.74-3.03-8.68-4.58-13.13-6.8-3.05,8.22-1.75,12.57,5.16,16.52Z"/>
      </g>
      <g id="Text">
        <text class="cls-6" transform="translate(59.42 703.07)"><tspan class="cls-1" x="0" y="0">M</tspan><tspan class="cls-2" x="68.76" y="0">L</tspan><tspan class="cls-1" x="110.88" y="0">-</tspan><tspan class="cls-4" x="138.46" y="0">in-a-B</tspan><tspan class="cls-3" x="356.68" y="0">o</tspan><tspan class="cls-4" x="399.96" y="0">x</tspan></text>
      </g>
    </g>
  </g>
</svg>